<svg xmlns="http://www.w3.org/2000/svg" width="740" height="640" viewBox="0 0 740 640" style="font-family:'Segoe UI',system-ui,sans-serif"><rect width="740" height="640" fill="#fff" rx="16"/><text x="370" y="36" text-anchor="middle" font-size="20" font-weight="700" fill="#1a1a2e">Кастрычнiцкая</text><g transform="translate(370,56)"><rect x="-30" y="-11" width="60" height="22" rx="11" fill="#E74C3C" opacity=".12"/><text x="0" y="4" text-anchor="middle" font-size="11" fill="#E74C3C" font-weight="600">Вы тут</text></g><line x1="365" y1="100" x2="365" y2="140" stroke="#F5A623" stroke-width="5" stroke-linecap="square"/><line x1="375" y1="100" x2="375" y2="140" stroke="#4CAF50" stroke-width="5" stroke-linecap="square"/><line x1="365" y1="140" x2="365" y2="164" stroke="#F5A623" stroke-width="5" stroke-linecap="square"/><line x1="375" y1="140" x2="375" y2="164" stroke="#4CAF50" stroke-width="5" stroke-linecap="square"/><path d="M365,154 V154 H200 V180" fill="none" stroke="#F5A623" stroke-width="5" stroke-linecap="square" stroke-linejoin="miter"/><line x1="200" y1="180" x2="200" y2="220" stroke="#F5A623" stroke-width="5" stroke-linecap="square"/><line x1="200" y1="220" x2="200" y2="244" stroke="#F5A623" stroke-width="5" stroke-linecap="square"/><path d="M200,234 V234 H115 V260" fill="none" stroke="#F5A623" stroke-width="5" stroke-linecap="square" stroke-linejoin="miter"/><line x1="115" y1="260" x2="115" y2="300" stroke="#F5A623" stroke-width="5" stroke-linecap="square"/><line x1="115" y1="300" x2="115" y2="340" stroke="#F5A623" stroke-width="5" stroke-linecap="square"/><line x1="115" y1="340" x2="115" y2="380" stroke="#F5A623" stroke-width="5" stroke-linecap="square"/><line x1="115" y1="380" x2="115" y2="420" stroke="#F5A623" stroke-width="5" stroke-linecap="square"/><path d="M200,244 V244 H285 V260" fill="none" stroke="#F5A623" stroke-width="5" stroke-linecap="square" stroke-linejoin="miter"/><line x1="285" y1="260" x2="285" y2="300" stroke="#F5A623" stroke-width="5" stroke-linecap="square"/><line x1="285" y1="300" x2="285" y2="340" stroke="#F5A623" stroke-width="5" stroke-linecap="square"/><path d="M365,164 V159 H535 V180" fill="none" stroke="#F5A623" stroke-width="5" stroke-linecap="square" stroke-linejoin="miter"/><path d="M375,164 V169 H545 V180" fill="none" stroke="#4CAF50" stroke-width="5" stroke-linecap="square" stroke-linejoin="miter"/><line x1="535" y1="180" x2="535" y2="204" stroke="#F5A623" stroke-width="5" stroke-linecap="square"/><line x1="545" y1="180" x2="545" y2="204" stroke="#4CAF50" stroke-width="5" stroke-linecap="square"/><path d="M535,194 V194 H455 V220" fill="none" stroke="#F5A623" stroke-width="5" stroke-linecap="square" stroke-linejoin="miter"/><line x1="455" y1="220" x2="455" y2="260" stroke="#F5A623" stroke-width="5" stroke-linecap="square"/><path d="M545,204 V204 H625 V220" fill="none" stroke="#4CAF50" stroke-width="5" stroke-linecap="square" stroke-linejoin="miter"/><line x1="625" y1="220" x2="625" y2="260" stroke="#4CAF50" stroke-width="5" stroke-linecap="square"/><line x1="625" y1="260" x2="625" y2="300" stroke="#4CAF50" stroke-width="5" stroke-linecap="square"/><line x1="625" y1="300" x2="625" y2="340" stroke="#4CAF50" stroke-width="5" stroke-linecap="square"/><line x1="625" y1="340" x2="625" y2="380" stroke="#4CAF50" stroke-width="5" stroke-linecap="square"/><line x1="625" y1="380" x2="625" y2="420" stroke="#4CAF50" stroke-width="5" stroke-linecap="square"/><rect x="365" y="98" width="10" height="4" rx="1" fill="#E74C3C"/><rect x="375" y="98" width="10" height="4" rx="1" fill="#E74C3C"/><rect x="365" y="138" width="10" height="4" rx="1" fill="#F5A623"/><rect x="375" y="138" width="10" height="4" rx="1" fill="#4CAF50"/><circle cx="351" cy="140" r="6.5" fill="#E74C3C"/><text x="351" y="143.5" text-anchor="middle" font-size="9" font-weight="700" fill="#fff">М</text><text x="390" y="144" font-size="12" font-weight="600" fill="#333">Нямiга</text><text x="285" y="150" text-anchor="middle" font-size="9" fill="#999" font-weight="600">А12, А47</text><text x="455" y="160" text-anchor="middle" font-size="9" fill="#999" font-weight="600">А27, Т1</text><rect x="200" y="178" width="10" height="4" rx="1" fill="#F5A623"/><text x="215" y="184" font-size="12" font-weight="400" fill="#333">Плошча Свабоды</text><rect x="200" y="218" width="10" height="4" rx="1" fill="#F5A623"/><text x="215" y="217" font-size="12" font-weight="400" fill="#333">Максіма</text><text x="215" y="231" font-size="12" font-weight="400" fill="#333">Багдановіча</text><text x="157.5" y="230" text-anchor="middle" font-size="9" fill="#999" font-weight="600">А12</text><text x="242.5" y="240" text-anchor="middle" font-size="9" fill="#999" font-weight="600">А47</text><rect x="115" y="258" width="10" height="4" rx="1" fill="#F5A623"/><circle cx="101" cy="260" r="6.5" fill="#E74C3C"/><text x="101" y="263.5" text-anchor="middle" font-size="9" font-weight="700" fill="#fff">М</text><text x="130" y="257" font-size="12" font-weight="600" fill="#333">Плошча Якуба</text><text x="130" y="271" font-size="12" font-weight="600" fill="#333">Коласа</text><rect x="115" y="298" width="10" height="4" rx="1" fill="#F5A623"/><text x="130" y="304" font-size="12" font-weight="400" fill="#333">Камароўскі рынак</text><rect x="115" y="338" width="10" height="4" rx="1" fill="#F5A623"/><circle cx="101" cy="340" r="6.5" fill="#E74C3C"/><text x="101" y="343.5" text-anchor="middle" font-size="9" font-weight="700" fill="#fff">М</text><text x="130" y="344" font-size="12" font-weight="600" fill="#333">Пушкінская</text><rect x="115" y="378" width="10" height="4" rx="1" fill="#F5A623"/><text x="130" y="384" font-size="12" font-weight="400" fill="#333">Чалюскінцаў</text><rect x="115" y="418" width="10" height="4" rx="1" fill="#F5A623"/><text x="130" y="424" font-size="12" font-weight="400" fill="#333">ДС Чалюскінцаў</text><rect x="90" y="428" width="50" height="24" rx="12" fill="#F5A623"/><text x="115" y="444" text-anchor="middle" font-size="11" font-weight="700" fill="#fff">А12</text><rect x="285" y="258" width="10" height="4" rx="1" fill="#F5A623"/><text x="300" y="264" font-size="12" font-weight="400" fill="#333">Батанічны сад</text><rect x="285" y="298" width="10" height="4" rx="1" fill="#F5A623"/><text x="300" y="304" font-size="12" font-weight="400" fill="#333">Чарнышэўскага</text><rect x="285" y="338" width="10" height="4" rx="1" fill="#F5A623"/><text x="300" y="344" font-size="12" font-weight="400" fill="#333">ДС Серабранка</text><rect x="260" y="348" width="50" height="24" rx="12" fill="#F5A623"/><text x="285" y="364" text-anchor="middle" font-size="11" font-weight="700" fill="#fff">А47</text><rect x="535" y="178" width="10" height="4" rx="1" fill="#F5A623"/><rect x="545" y="178" width="10" height="4" rx="1" fill="#4CAF50"/><text x="560" y="184" font-size="12" font-weight="400" fill="#333">Юбілейная плошча</text><text x="497.5" y="190" text-anchor="middle" font-size="9" fill="#999" font-weight="600">А27</text><text x="582.5" y="200" text-anchor="middle" font-size="9" fill="#999" font-weight="600">Т1</text><rect x="455" y="218" width="10" height="4" rx="1" fill="#F5A623"/><text x="470" y="224" font-size="12" font-weight="400" fill="#333">Даўгабродская</text><rect x="455" y="258" width="10" height="4" rx="1" fill="#F5A623"/><text x="470" y="264" font-size="12" font-weight="400" fill="#333">ДС Шабаны</text><rect x="430" y="268" width="50" height="24" rx="12" fill="#F5A623"/><text x="455" y="284" text-anchor="middle" font-size="11" font-weight="700" fill="#fff">А27</text><rect x="625" y="218" width="10" height="4" rx="1" fill="#4CAF50"/><circle cx="611" cy="220" r="6.5" fill="#E74C3C"/><text x="611" y="223.5" text-anchor="middle" font-size="9" font-weight="700" fill="#fff">М</text><text x="640" y="224" font-size="12" font-weight="600" fill="#333">Плошча Перамогi</text><rect x="625" y="258" width="10" height="4" rx="1" fill="#4CAF50"/><circle cx="611" cy="260" r="6.5" fill="#E74C3C"/><text x="611" y="263.5" text-anchor="middle" font-size="9" font-weight="700" fill="#fff">М</text><text x="640" y="257" font-size="12" font-weight="600" fill="#333">Плошча Якуба</text><text x="640" y="271" font-size="12" font-weight="600" fill="#333">Коласа</text><rect x="625" y="298" width="10" height="4" rx="1" fill="#4CAF50"/><circle cx="611" cy="300" r="6.5" fill="#E74C3C"/><text x="611" y="303.5" text-anchor="middle" font-size="9" font-weight="700" fill="#fff">М</text><text x="640" y="304" font-size="12" font-weight="600" fill="#333">Акадэмія навук</text><rect x="625" y="338" width="10" height="4" rx="1" fill="#4CAF50"/><circle cx="611" cy="340" r="6.5" fill="#E74C3C"/><text x="611" y="343.5" text-anchor="middle" font-size="9" font-weight="700" fill="#fff">М</text><text x="640" y="344" font-size="12" font-weight="600" fill="#333">Парк Чалюскінцаў</text><rect x="625" y="378" width="10" height="4" rx="1" fill="#4CAF50"/><circle cx="611" cy="380" r="6.5" fill="#E74C3C"/><text x="611" y="383.5" text-anchor="middle" font-size="9" font-weight="700" fill="#fff">М</text><text x="640" y="384" font-size="12" font-weight="600" fill="#333">Маскоўская</text><rect x="625" y="418" width="10" height="4" rx="1" fill="#4CAF50"/><text x="640" y="424" font-size="12" font-weight="400" fill="#333">ДС Усход</text><rect x="600" y="428" width="50" height="24" rx="12" fill="#4CAF50"/><text x="625" y="444" text-anchor="middle" font-size="11" font-weight="700" fill="#fff">Т1</text><g transform="translate(30,615)"><rect x="0" y="-8" width="14" height="14" rx="3" fill="#F5A623"/><text x="20" y="4" font-size="11" fill="#666">Аўтобус</text><rect x="95" y="-8" width="14" height="14" rx="3" fill="#4CAF50"/><text x="115" y="4" font-size="11" fill="#666">Тралейбус</text><circle cx="210" cy="0" r="6.5" fill="#E74C3C"/><text x="210" y="3.5" text-anchor="middle" font-size="9" font-weight="700" fill="#fff">М</text><text x="222" y="4" font-size="11" fill="#666">Метро</text></g></svg>