<svg xmlns="http://www.w3.org/2000/svg" width="860" height="548" viewBox="0 0 860 548" style="font-family: 'Segoe UI', system-ui, sans-serif"><rect width="860" height="548" fill="#ffffff" rx="16"/><text x="430" y="36" text-anchor="middle" font-size="20" font-weight="700" fill="#1a1a2e">Нямiга</text><g transform="translate(430, 56)"><rect x="-30" y="-11" width="60" height="22" rx="11" fill="#E74C3C" opacity="0.12"/><text x="0" y="4" text-anchor="middle" font-size="11" fill="#E74C3C" font-weight="600">Вы тут</text></g><path d="M450,100 C450,114.4 230,121.6 230,136" fill="none" stroke="#F5A623" stroke-width="5" stroke-linecap="round"/><path d="M230,136 C230,150.4 110,157.6 110,172" fill="none" stroke="#F5A623" stroke-width="5" stroke-linecap="round"/><line x1="110" y1="172" x2="110" y2="208" stroke="#F5A623" stroke-width="5" stroke-linecap="round"/><line x1="110" y1="208" x2="110" y2="244" stroke="#F5A623" stroke-width="5" stroke-linecap="round"/><line x1="110" y1="244" x2="110" y2="280" stroke="#F5A623" stroke-width="5" stroke-linecap="round"/><line x1="110" y1="280" x2="110" y2="316" stroke="#F5A623" stroke-width="5" stroke-linecap="round"/><path d="M230,136 C230,150.4 350,157.6 350,172" fill="none" stroke="#F5A623" stroke-width="5" stroke-linecap="round"/><path d="M350,172 C350,186.4 270,193.6 270,208" fill="none" stroke="#F5A623" stroke-width="5" stroke-linecap="round"/><line x1="270" y1="208" x2="270" y2="244" stroke="#F5A623" stroke-width="5" stroke-linecap="round"/><line x1="270" y1="244" x2="270" y2="280" stroke="#F5A623" stroke-width="5" stroke-linecap="round"/><line x1="270" y1="280" x2="270" y2="316" stroke="#F5A623" stroke-width="5" stroke-linecap="round"/><line x1="270" y1="316" x2="270" y2="352" stroke="#F5A623" stroke-width="5" stroke-linecap="round"/><path d="M350,172 C350,186.4 430,193.6 430,208" fill="none" stroke="#F5A623" stroke-width="5" stroke-linecap="round"/><line x1="430" y1="208" x2="430" y2="244" stroke="#F5A623" stroke-width="5" stroke-linecap="round"/><line x1="430" y1="244" x2="430" y2="280" stroke="#F5A623" stroke-width="5" stroke-linecap="round"/><path d="M448,100 C448,114.4 668,121.6 668,136" fill="none" stroke="#F5A623" stroke-width="5" stroke-linecap="round"/><path d="M452,100 C452,114.4 672,121.6 672,136" fill="none" stroke="#4CAF50" stroke-width="5" stroke-linecap="round"/><path d="M670,136 C670,150.4 590,157.6 590,172" fill="none" stroke="#F5A623" stroke-width="5" stroke-linecap="round"/><line x1="590" y1="172" x2="590" y2="208" stroke="#F5A623" stroke-width="5" stroke-linecap="round"/><path d="M670,136 C670,150.4 750,157.6 750,172" fill="none" stroke="#4CAF50" stroke-width="5" stroke-linecap="round"/><line x1="750" y1="172" x2="750" y2="208" stroke="#4CAF50" stroke-width="5" stroke-linecap="round"/><line x1="750" y1="208" x2="750" y2="244" stroke="#4CAF50" stroke-width="5" stroke-linecap="round"/><line x1="750" y1="244" x2="750" y2="280" stroke="#4CAF50" stroke-width="5" stroke-linecap="round"/><line x1="750" y1="280" x2="750" y2="316" stroke="#4CAF50" stroke-width="5" stroke-linecap="round"/><line x1="750" y1="316" x2="750" y2="352" stroke="#4CAF50" stroke-width="5" stroke-linecap="round"/><rect x="450" y="98" width="10" height="4" rx="1" fill="#E74C3C"/><text x="336" y="116.2" text-anchor="end" font-size="9" fill="#bbb" font-style="italic">А2, А12, А47</text><text x="564" y="116.2" text-anchor="start" font-size="9" fill="#bbb" font-style="italic">А27, Т1</text><rect x="230" y="134" width="10" height="4" rx="1" fill="#F5A623"/><text x="245" y="139.5" font-size="11" font-weight="400" fill="#333">Плошча Свабоды</text><text x="166" y="152.2" text-anchor="end" font-size="9" fill="#bbb" font-style="italic">А2</text><text x="294" y="152.2" text-anchor="start" font-size="9" fill="#bbb" font-style="italic">А12, А47</text><rect x="110" y="170" width="10" height="4" rx="1" fill="#F5A623"/><text x="125" y="175.5" font-size="11" font-weight="400" fill="#333">Юбілейная плошча</text><rect x="110" y="206" width="10" height="4" rx="1" fill="#F5A623"/><circle cx="95" cy="208" r="6.5" fill="#E74C3C"/><text x="95" y="211.5" text-anchor="middle" font-size="9" font-weight="700" fill="#fff">М</text><text x="125" y="211.5" font-size="11" font-weight="600" fill="#333">Плошча Перамогi</text><rect x="110" y="242" width="10" height="4" rx="1" fill="#F5A623"/><text x="125" y="247.5" font-size="11" font-weight="400" fill="#333">Паркавая</text><rect x="110" y="278" width="10" height="4" rx="1" fill="#F5A623"/><text x="125" y="283.5" font-size="11" font-weight="400" fill="#333">Батанічны сад</text><rect x="110" y="314" width="10" height="4" rx="1" fill="#F5A623"/><text x="125" y="319.5" font-size="11" font-weight="400" fill="#333">ДС Серабранка</text><rect x="85" y="324" width="50" height="24" rx="12" fill="#F5A623"/><text x="110" y="340" text-anchor="middle" font-size="11" font-weight="700" fill="#fff">А2</text><rect x="350" y="170" width="10" height="4" rx="1" fill="#F5A623"/><text x="365" y="175.5" font-size="11" font-weight="400" fill="#333">Максіма Багдановіча</text><text x="306" y="188.2" text-anchor="end" font-size="9" fill="#bbb" font-style="italic">А12</text><text x="394" y="188.2" text-anchor="start" font-size="9" fill="#bbb" font-style="italic">А47</text><rect x="270" y="206" width="10" height="4" rx="1" fill="#F5A623"/><circle cx="255" cy="208" r="6.5" fill="#E74C3C"/><text x="255" y="211.5" text-anchor="middle" font-size="9" font-weight="700" fill="#fff">М</text><text x="285" y="211.5" font-size="11" font-weight="600" fill="#333">Плошча Якуба Коласа</text><rect x="270" y="242" width="10" height="4" rx="1" fill="#F5A623"/><text x="285" y="247.5" font-size="11" font-weight="400" fill="#333">Камароўскі рынак</text><rect x="270" y="278" width="10" height="4" rx="1" fill="#F5A623"/><circle cx="255" cy="280" r="6.5" fill="#E74C3C"/><text x="255" y="283.5" text-anchor="middle" font-size="9" font-weight="700" fill="#fff">М</text><text x="285" y="283.5" font-size="11" font-weight="600" fill="#333">Пушкінская</text><rect x="270" y="314" width="10" height="4" rx="1" fill="#F5A623"/><text x="285" y="319.5" font-size="11" font-weight="400" fill="#333">Чалюскінцаў</text><rect x="270" y="350" width="10" height="4" rx="1" fill="#F5A623"/><text x="285" y="355.5" font-size="11" font-weight="400" fill="#333">ДС Чалюскінцаў</text><rect x="245" y="360" width="50" height="24" rx="12" fill="#F5A623"/><text x="270" y="376" text-anchor="middle" font-size="11" font-weight="700" fill="#fff">А12</text><rect x="430" y="206" width="10" height="4" rx="1" fill="#F5A623"/><text x="445" y="211.5" font-size="11" font-weight="400" fill="#333">Батанічны сад</text><rect x="430" y="242" width="10" height="4" rx="1" fill="#F5A623"/><text x="445" y="247.5" font-size="11" font-weight="400" fill="#333">Чарнышэўскага</text><rect x="430" y="278" width="10" height="4" rx="1" fill="#F5A623"/><text x="445" y="283.5" font-size="11" font-weight="400" fill="#333">ДС Серабранка</text><rect x="405" y="288" width="50" height="24" rx="12" fill="#F5A623"/><text x="430" y="304" text-anchor="middle" font-size="11" font-weight="700" fill="#fff">А47</text><rect x="670" y="134" width="5" height="4" rx="1" fill="#F5A623"/><rect x="675" y="134" width="5" height="4" rx="1" fill="#4CAF50"/><text x="685" y="139.5" font-size="11" font-weight="400" fill="#333">Юбілейная плошча</text><text x="626" y="152.2" text-anchor="end" font-size="9" fill="#bbb" font-style="italic">А27</text><text x="714" y="152.2" text-anchor="start" font-size="9" fill="#bbb" font-style="italic">Т1</text><rect x="590" y="170" width="10" height="4" rx="1" fill="#F5A623"/><text x="605" y="175.5" font-size="11" font-weight="400" fill="#333">Даўгабродская</text><rect x="590" y="206" width="10" height="4" rx="1" fill="#F5A623"/><text x="605" y="211.5" font-size="11" font-weight="400" fill="#333">ДС Шабаны</text><rect x="565" y="216" width="50" height="24" rx="12" fill="#F5A623"/><text x="590" y="232" text-anchor="middle" font-size="11" font-weight="700" fill="#fff">А27</text><rect x="750" y="170" width="10" height="4" rx="1" fill="#4CAF50"/><circle cx="735" cy="172" r="6.5" fill="#E74C3C"/><text x="735" y="175.5" text-anchor="middle" font-size="9" font-weight="700" fill="#fff">М</text><text x="765" y="175.5" font-size="11" font-weight="600" fill="#333">Плошча Перамогi</text><rect x="750" y="206" width="10" height="4" rx="1" fill="#4CAF50"/><circle cx="735" cy="208" r="6.5" fill="#E74C3C"/><text x="735" y="211.5" text-anchor="middle" font-size="9" font-weight="700" fill="#fff">М</text><text x="765" y="211.5" font-size="11" font-weight="600" fill="#333">Плошча Якуба Коласа</text><rect x="750" y="242" width="10" height="4" rx="1" fill="#4CAF50"/><circle cx="735" cy="244" r="6.5" fill="#E74C3C"/><text x="735" y="247.5" text-anchor="middle" font-size="9" font-weight="700" fill="#fff">М</text><text x="765" y="247.5" font-size="11" font-weight="600" fill="#333">Акадэмія навук</text><rect x="750" y="278" width="10" height="4" rx="1" fill="#4CAF50"/><circle cx="735" cy="280" r="6.5" fill="#E74C3C"/><text x="735" y="283.5" text-anchor="middle" font-size="9" font-weight="700" fill="#fff">М</text><text x="765" y="283.5" font-size="11" font-weight="600" fill="#333">Парк Чалюскінцаў</text><rect x="750" y="314" width="10" height="4" rx="1" fill="#4CAF50"/><circle cx="735" cy="316" r="6.5" fill="#E74C3C"/><text x="735" y="319.5" text-anchor="middle" font-size="9" font-weight="700" fill="#fff">М</text><text x="765" y="319.5" font-size="11" font-weight="600" fill="#333">Маскоўская</text><rect x="750" y="350" width="10" height="4" rx="1" fill="#4CAF50"/><text x="765" y="355.5" font-size="11" font-weight="400" fill="#333">ДС Усход</text><rect x="725" y="360" width="50" height="24" rx="12" fill="#4CAF50"/><text x="750" y="376" text-anchor="middle" font-size="11" font-weight="700" fill="#fff">Т1</text><text x="450" y="70" text-anchor="middle" font-size="10" fill="#999">А2  А12  А27  А47  Т1</text><g transform="translate(30, 523)"><rect x="0" y="-8" width="14" height="14" rx="3" fill="#F5A623"/><text x="20" y="4" font-size="11" fill="#666">Аўтобус</text><rect x="95" y="-8" width="14" height="14" rx="3" fill="#4CAF50"/><text x="115" y="4" font-size="11" fill="#666">Тралейбус</text><circle cx="210" cy="0" r="6.5" fill="#E74C3C"/><text x="210" y="3.5" text-anchor="middle" font-size="9" font-weight="700" fill="#fff">М</text><text x="222" y="4" font-size="11" fill="#666">Метро</text></g></svg>