<svg xmlns="http://www.w3.org/2000/svg" width="1010" height="658" viewBox="0 0 1010 658" style="font-family:'Segoe UI',system-ui,sans-serif"><rect width="1010" height="658" fill="#ffffff" rx="16"/><text x="165" y="36" text-anchor="middle" font-size="22" font-weight="700" fill="#1a1a2e">Нямiга</text><g transform="translate(165,56)"><rect x="-30" y="-11" width="60" height="22" rx="11" fill="#E74C3C" opacity=".15"/><text x="0" y="4" text-anchor="middle" font-size="11" fill="#E74C3C" font-weight="600">Вы тут</text></g><rect x="80" y="70" width="12" height="12" rx="3" fill="#F5A623"/><text x="96" y="80" font-size="11" fill="#1a1a2e" font-weight="600">А2, А12, А27, А47</text><rect x="225.5" y="70" width="12" height="12" rx="3" fill="#00897B"/><text x="241.5" y="80" font-size="11" fill="#1a1a2e" font-weight="600">Т1</text><g transform="translate(80,628)"><rect x="0" y="-8" width="14" height="14" rx="3" fill="#F5A623"/><text x="20" y="4" font-size="11" fill="#999">Аўтобус</text><rect x="100" y="-8" width="14" height="14" rx="3" fill="#00897B"/><text x="120" y="4" font-size="11" fill="#999">Тралейбус</text><circle cx="225" cy="0" r="7" fill="#E74C3C"/><text x="225" y="3.5" text-anchor="middle" font-size="9" font-weight="700" fill="#fff">М</text><text x="238" y="4" font-size="11" fill="#999">Метро</text></g><line x1="173" y1="110" x2="165" y2="162" stroke="#F5A623" stroke-width="5" stroke-linecap="round"/><path d="M157,110 V112 C157,120.8368 164.1632,128 173,128 H821 C829.8368,128 837,135.1632 837,144 V162" fill="none" stroke="#00897B" stroke-width="5" stroke-linecap="round"/><path d="M173,110 V119 C173,127.8368 180.1632,135 189,135 H837 C845.8368,135 853,142.1632 853,151 V162" fill="none" stroke="#F5A623" stroke-width="5" stroke-linecap="round"/><line x1="165" y1="162" x2="165" y2="214" stroke="#F5A623" stroke-width="5" stroke-linecap="round"/><path d="M165,162 V164 C165,172.8368 172.1632,180 181,180 H489 C497.8368,180 505,187.1632 505,196 V214" fill="none" stroke="#F5A623" stroke-width="5" stroke-linecap="round"/><line x1="505" y1="214" x2="505" y2="266" stroke="#F5A623" stroke-width="5" stroke-linecap="round"/><line x1="505" y1="266" x2="505" y2="318" stroke="#F5A623" stroke-width="5" stroke-linecap="round"/><line x1="505" y1="318" x2="505" y2="370" stroke="#F5A623" stroke-width="5" stroke-linecap="round"/><line x1="505" y1="370" x2="505" y2="422" stroke="#F5A623" stroke-width="5" stroke-linecap="round"/><line x1="165" y1="214" x2="165" y2="266" stroke="#F5A623" stroke-width="5" stroke-linecap="round"/><path d="M165,214 V216 C165,224.8368 172.1632,232 181,232 H319 C327.8368,232 335,239.1632 335,248 V266" fill="none" stroke="#F5A623" stroke-width="5" stroke-linecap="round"/><line x1="165" y1="266" x2="165" y2="318" stroke="#F5A623" stroke-width="5" stroke-linecap="round"/><line x1="165" y1="318" x2="165" y2="370" stroke="#F5A623" stroke-width="5" stroke-linecap="round"/><line x1="165" y1="370" x2="165" y2="422" stroke="#F5A623" stroke-width="5" stroke-linecap="round"/><line x1="165" y1="422" x2="165" y2="474" stroke="#F5A623" stroke-width="5" stroke-linecap="round"/><line x1="335" y1="266" x2="335" y2="318" stroke="#F5A623" stroke-width="5" stroke-linecap="round"/><line x1="335" y1="318" x2="335" y2="370" stroke="#F5A623" stroke-width="5" stroke-linecap="round"/><line x1="853" y1="162" x2="845" y2="214" stroke="#F5A623" stroke-width="5" stroke-linecap="round"/><path d="M837,162 V164 C837,172.8368 829.8368,180 821,180 H691 C682.1632,180 675,187.1632 675,196 V214" fill="none" stroke="#00897B" stroke-width="5" stroke-linecap="round"/><line x1="845" y1="214" x2="845" y2="266" stroke="#F5A623" stroke-width="5" stroke-linecap="round"/><line x1="675" y1="214" x2="675" y2="266" stroke="#00897B" stroke-width="5" stroke-linecap="round"/><line x1="675" y1="266" x2="675" y2="318" stroke="#00897B" stroke-width="5" stroke-linecap="round"/><line x1="675" y1="318" x2="675" y2="370" stroke="#00897B" stroke-width="5" stroke-linecap="round"/><line x1="675" y1="370" x2="675" y2="422" stroke="#00897B" stroke-width="5" stroke-linecap="round"/><line x1="675" y1="422" x2="675" y2="474" stroke="#00897B" stroke-width="5" stroke-linecap="round"/><circle cx="157" cy="110" r="3" fill="#fff" stroke="#E74C3C" stroke-width="1.5"/><circle cx="173" cy="110" r="3" fill="#fff" stroke="#E74C3C" stroke-width="1.5"/><circle cx="141" cy="110" r="7" fill="#E74C3C"/><text x="141" y="113.5" text-anchor="middle" font-size="9" font-weight="700" fill="#fff">М</text><circle cx="165" cy="162" r="3" fill="#fff" stroke="#F5A623" stroke-width="1.5"/><text x="175" y="166" font-size="12" font-weight="400" fill="#1a1a2e">Плошча Свабоды</text><circle cx="505" cy="214" r="3" fill="#fff" stroke="#F5A623" stroke-width="1.5"/><text x="515" y="218" font-size="12" font-weight="400" fill="#1a1a2e">Юбілейная плошча</text><circle cx="505" cy="266" r="3" fill="#fff" stroke="#F5A623" stroke-width="1.5"/><circle cx="489" cy="266" r="7" fill="#E74C3C"/><text x="489" y="269.5" text-anchor="middle" font-size="9" font-weight="700" fill="#fff">М</text><text x="515" y="270" font-size="12" font-weight="600" fill="#1a1a2e">Плошча Перамогi</text><circle cx="505" cy="318" r="3" fill="#fff" stroke="#F5A623" stroke-width="1.5"/><text x="515" y="322" font-size="12" font-weight="400" fill="#1a1a2e">Паркавая</text><circle cx="505" cy="370" r="3" fill="#fff" stroke="#F5A623" stroke-width="1.5"/><text x="515" y="374" font-size="12" font-weight="400" fill="#1a1a2e">Батанічны сад</text><circle cx="505" cy="422" r="3" fill="#fff" stroke="#F5A623" stroke-width="1.5"/><text x="515" y="426" font-size="12" font-weight="400" fill="#1a1a2e">ДС Серабранка</text><rect x="479" y="432" width="52" height="24" rx="12" fill="#F5A623"/><text x="505" y="448" text-anchor="middle" font-size="11" font-weight="700" fill="#fff">А2</text><circle cx="165" cy="214" r="3" fill="#fff" stroke="#F5A623" stroke-width="1.5"/><text x="175" y="211" font-size="12" font-weight="400" fill="#1a1a2e">Максіма</text><text x="175" y="225" font-size="12" font-weight="400" fill="#1a1a2e">Багдановіча</text><circle cx="165" cy="266" r="3" fill="#fff" stroke="#F5A623" stroke-width="1.5"/><circle cx="149" cy="266" r="7" fill="#E74C3C"/><text x="149" y="269.5" text-anchor="middle" font-size="9" font-weight="700" fill="#fff">М</text><text x="175" y="263" font-size="12" font-weight="600" fill="#1a1a2e">Плошча Якуба</text><text x="175" y="277" font-size="12" font-weight="600" fill="#1a1a2e">Коласа</text><circle cx="165" cy="318" r="3" fill="#fff" stroke="#F5A623" stroke-width="1.5"/><text x="175" y="322" font-size="12" font-weight="400" fill="#1a1a2e">Камароўскі рынак</text><circle cx="165" cy="370" r="3" fill="#fff" stroke="#F5A623" stroke-width="1.5"/><circle cx="149" cy="370" r="7" fill="#E74C3C"/><text x="149" y="373.5" text-anchor="middle" font-size="9" font-weight="700" fill="#fff">М</text><text x="175" y="374" font-size="12" font-weight="600" fill="#1a1a2e">Пушкінская</text><circle cx="165" cy="422" r="3" fill="#fff" stroke="#F5A623" stroke-width="1.5"/><text x="175" y="426" font-size="12" font-weight="400" fill="#1a1a2e">Чалюскінцаў</text><circle cx="165" cy="474" r="3" fill="#fff" stroke="#F5A623" stroke-width="1.5"/><text x="175" y="478" font-size="12" font-weight="400" fill="#1a1a2e">ДС Чалюскінцаў</text><rect x="139" y="484" width="52" height="24" rx="12" fill="#F5A623"/><text x="165" y="500" text-anchor="middle" font-size="11" font-weight="700" fill="#fff">А12</text><circle cx="335" cy="266" r="3" fill="#fff" stroke="#F5A623" stroke-width="1.5"/><text x="345" y="270" font-size="12" font-weight="400" fill="#1a1a2e">Батанічны сад</text><circle cx="335" cy="318" r="3" fill="#fff" stroke="#F5A623" stroke-width="1.5"/><text x="345" y="322" font-size="12" font-weight="400" fill="#1a1a2e">Чарнышэўскага</text><circle cx="335" cy="370" r="3" fill="#fff" stroke="#F5A623" stroke-width="1.5"/><text x="345" y="374" font-size="12" font-weight="400" fill="#1a1a2e">ДС Серабранка</text><rect x="309" y="380" width="52" height="24" rx="12" fill="#F5A623"/><text x="335" y="396" text-anchor="middle" font-size="11" font-weight="700" fill="#fff">А47</text><circle cx="837" cy="162" r="3" fill="#fff" stroke="#00897B" stroke-width="1.5"/><circle cx="853" cy="162" r="3" fill="#fff" stroke="#F5A623" stroke-width="1.5"/><text x="863" y="166" font-size="12" font-weight="400" fill="#1a1a2e">Юбілейная плошча</text><circle cx="845" cy="214" r="3" fill="#fff" stroke="#F5A623" stroke-width="1.5"/><text x="855" y="218" font-size="12" font-weight="400" fill="#1a1a2e">Даўгабродская</text><circle cx="845" cy="266" r="3" fill="#fff" stroke="#F5A623" stroke-width="1.5"/><text x="855" y="270" font-size="12" font-weight="400" fill="#1a1a2e">ДС Шабаны</text><rect x="819" y="276" width="52" height="24" rx="12" fill="#F5A623"/><text x="845" y="292" text-anchor="middle" font-size="11" font-weight="700" fill="#fff">А27</text><circle cx="675" cy="214" r="3" fill="#fff" stroke="#00897B" stroke-width="1.5"/><circle cx="659" cy="214" r="7" fill="#E74C3C"/><text x="659" y="217.5" text-anchor="middle" font-size="9" font-weight="700" fill="#fff">М</text><text x="685" y="218" font-size="12" font-weight="600" fill="#1a1a2e">Плошча Перамогi</text><circle cx="675" cy="266" r="3" fill="#fff" stroke="#00897B" stroke-width="1.5"/><circle cx="659" cy="266" r="7" fill="#E74C3C"/><text x="659" y="269.5" text-anchor="middle" font-size="9" font-weight="700" fill="#fff">М</text><text x="685" y="263" font-size="12" font-weight="600" fill="#1a1a2e">Плошча Якуба</text><text x="685" y="277" font-size="12" font-weight="600" fill="#1a1a2e">Коласа</text><circle cx="675" cy="318" r="3" fill="#fff" stroke="#00897B" stroke-width="1.5"/><circle cx="659" cy="318" r="7" fill="#E74C3C"/><text x="659" y="321.5" text-anchor="middle" font-size="9" font-weight="700" fill="#fff">М</text><text x="685" y="322" font-size="12" font-weight="600" fill="#1a1a2e">Акадэмія навук</text><circle cx="675" cy="370" r="3" fill="#fff" stroke="#00897B" stroke-width="1.5"/><circle cx="659" cy="370" r="7" fill="#E74C3C"/><text x="659" y="373.5" text-anchor="middle" font-size="9" font-weight="700" fill="#fff">М</text><text x="685" y="374" font-size="12" font-weight="600" fill="#1a1a2e">Парк Чалюскінцаў</text><circle cx="675" cy="422" r="3" fill="#fff" stroke="#00897B" stroke-width="1.5"/><circle cx="659" cy="422" r="7" fill="#E74C3C"/><text x="659" y="425.5" text-anchor="middle" font-size="9" font-weight="700" fill="#fff">М</text><text x="685" y="426" font-size="12" font-weight="600" fill="#1a1a2e">Маскоўская</text><circle cx="675" cy="474" r="3" fill="#fff" stroke="#00897B" stroke-width="1.5"/><text x="685" y="478" font-size="12" font-weight="400" fill="#1a1a2e">ДС Усход</text><rect x="649" y="484" width="52" height="24" rx="12" fill="#00897B"/><text x="675" y="500" text-anchor="middle" font-size="11" font-weight="700" fill="#fff">Т1</text><text x="165" y="154" text-anchor="middle" font-size="8" fill="#999" font-weight="600">А2, А12, А47</text><text x="845" y="154" text-anchor="middle" font-size="8" fill="#999" font-weight="600">А27, Т1</text><text x="505" y="206" text-anchor="middle" font-size="8" fill="#999" font-weight="600">А2</text><text x="165" y="206" text-anchor="middle" font-size="8" fill="#999" font-weight="600">А12, А47</text><text x="165" y="258" text-anchor="middle" font-size="8" fill="#999" font-weight="600">А12</text><text x="335" y="258" text-anchor="middle" font-size="8" fill="#999" font-weight="600">А47</text><text x="845" y="206" text-anchor="middle" font-size="8" fill="#999" font-weight="600">А27</text><text x="675" y="206" text-anchor="middle" font-size="8" fill="#999" font-weight="600">Т1</text></svg>