<svg xmlns="http://www.w3.org/2000/svg" width="780" height="572" viewBox="0 0 780 572" style="font-family: sans-serif"><rect width="780" height="572" fill="#ffffff" rx="16"/><text x="390" y="40" text-anchor="middle" font-size="22" font-weight="700" fill="#1a1a2e">Нямiга</text><g transform="translate(390, 58)"><circle cx="0" cy="0" r="6" fill="#E74C3C"/><text x="12" y="5" font-size="13" fill="#E74C3C" font-weight="600">Вы тут</text></g><rect x="84" y="72" width="52" height="26" rx="13" fill="#4CAF50"/><text x="110" y="90" text-anchor="middle" font-size="13" font-weight="700" fill="#fff">Т1</text><line x1="110" y1="120" x2="110" y2="428" stroke="#4CAF50" stroke-width="6" stroke-linecap="round"/><circle cx="110" cy="120" r="11" fill="#E74C3C" opacity="0.2"/><circle cx="110" cy="120" r="9" fill="#E74C3C"/><circle cx="110" cy="164" r="7" fill="#fff" stroke="#4CAF50" stroke-width="2.5"/><text x="125" y="168" font-size="13" fill="#333">Юбілейная плошча</text><circle cx="110" cy="208" r="9" fill="#fff" stroke="#4CAF50" stroke-width="2.5"/><circle cx="87" cy="208" r="7" fill="#E74C3C"/><text x="87" y="212" text-anchor="middle" font-size="10" font-weight="700" fill="#fff">М</text><text x="127" y="212" font-size="13" fill="#333">Плошча Перамогi</text><circle cx="110" cy="252" r="9" fill="#fff" stroke="#4CAF50" stroke-width="2.5"/><circle cx="87" cy="252" r="7" fill="#E74C3C"/><text x="87" y="256" text-anchor="middle" font-size="10" font-weight="700" fill="#fff">М</text><text x="127" y="256" font-size="13" fill="#333">Плошча Якуба Коласа</text><circle cx="110" cy="296" r="9" fill="#fff" stroke="#4CAF50" stroke-width="2.5"/><circle cx="87" cy="296" r="7" fill="#E74C3C"/><text x="87" y="300" text-anchor="middle" font-size="10" font-weight="700" fill="#fff">М</text><text x="127" y="300" font-size="13" fill="#333">Акадэмія навук</text><circle cx="110" cy="340" r="9" fill="#fff" stroke="#4CAF50" stroke-width="2.5"/><circle cx="87" cy="340" r="7" fill="#E74C3C"/><text x="87" y="344" text-anchor="middle" font-size="10" font-weight="700" fill="#fff">М</text><text x="127" y="344" font-size="13" fill="#333">Парк Чалюскінцаў</text><circle cx="110" cy="384" r="9" fill="#fff" stroke="#4CAF50" stroke-width="2.5"/><circle cx="87" cy="384" r="7" fill="#E74C3C"/><text x="87" y="388" text-anchor="middle" font-size="10" font-weight="700" fill="#fff">М</text><text x="127" y="388" font-size="13" fill="#333">Маскоўская</text><circle cx="110" cy="428" r="8" fill="#4CAF50"/><circle cx="110" cy="428" r="5" fill="#fff"/><circle cx="110" cy="428" r="3" fill="#4CAF50"/><text x="125" y="432" font-size="13" fill="#333">ДС Усход</text><rect x="84" y="440" width="52" height="26" rx="13" fill="#4CAF50"/><text x="110" y="458" text-anchor="middle" font-size="13" font-weight="700" fill="#fff">Т1</text><rect x="224" y="72" width="52" height="26" rx="13" fill="#F5A623"/><text x="250" y="90" text-anchor="middle" font-size="13" font-weight="700" fill="#fff">А2</text><line x1="250" y1="120" x2="250" y2="384" stroke="#F5A623" stroke-width="6" stroke-linecap="round"/><circle cx="250" cy="120" r="11" fill="#E74C3C" opacity="0.2"/><circle cx="250" cy="120" r="9" fill="#E74C3C"/><circle cx="250" cy="164" r="7" fill="#fff" stroke="#F5A623" stroke-width="2.5"/><text x="265" y="168" font-size="13" fill="#333">Плошча Свабоды</text><circle cx="250" cy="208" r="7" fill="#fff" stroke="#F5A623" stroke-width="2.5"/><text x="265" y="212" font-size="13" fill="#333">Юбілейная плошча</text><circle cx="250" cy="252" r="9" fill="#fff" stroke="#F5A623" stroke-width="2.5"/><circle cx="227" cy="252" r="7" fill="#E74C3C"/><text x="227" y="256" text-anchor="middle" font-size="10" font-weight="700" fill="#fff">М</text><text x="267" y="256" font-size="13" fill="#333">Плошча Перамогi</text><circle cx="250" cy="296" r="7" fill="#fff" stroke="#F5A623" stroke-width="2.5"/><text x="265" y="300" font-size="13" fill="#333">Паркавая</text><circle cx="250" cy="340" r="7" fill="#fff" stroke="#F5A623" stroke-width="2.5"/><text x="265" y="344" font-size="13" fill="#333">Батанічны сад</text><circle cx="250" cy="384" r="8" fill="#F5A623"/><circle cx="250" cy="384" r="5" fill="#fff"/><circle cx="250" cy="384" r="3" fill="#F5A623"/><text x="265" y="388" font-size="13" fill="#333">ДС Серабранка</text><rect x="224" y="396" width="52" height="26" rx="13" fill="#F5A623"/><text x="250" y="414" text-anchor="middle" font-size="13" font-weight="700" fill="#fff">А2</text><rect x="364" y="72" width="52" height="26" rx="13" fill="#F5A623"/><text x="390" y="90" text-anchor="middle" font-size="13" font-weight="700" fill="#fff">А12</text><line x1="390" y1="120" x2="390" y2="428" stroke="#F5A623" stroke-width="6" stroke-linecap="round"/><circle cx="390" cy="120" r="11" fill="#E74C3C" opacity="0.2"/><circle cx="390" cy="120" r="9" fill="#E74C3C"/><circle cx="390" cy="164" r="7" fill="#fff" stroke="#F5A623" stroke-width="2.5"/><text x="405" y="168" font-size="13" fill="#333">Плошча Свабоды</text><circle cx="390" cy="208" r="7" fill="#fff" stroke="#F5A623" stroke-width="2.5"/><text x="405" y="212" font-size="13" fill="#333">Максіма Багдановіча</text><circle cx="390" cy="252" r="9" fill="#fff" stroke="#F5A623" stroke-width="2.5"/><circle cx="367" cy="252" r="7" fill="#E74C3C"/><text x="367" y="256" text-anchor="middle" font-size="10" font-weight="700" fill="#fff">М</text><text x="407" y="256" font-size="13" fill="#333">Плошча Якуба Коласа</text><circle cx="390" cy="296" r="7" fill="#fff" stroke="#F5A623" stroke-width="2.5"/><text x="405" y="300" font-size="13" fill="#333">Камароўскі рынак</text><circle cx="390" cy="340" r="9" fill="#fff" stroke="#F5A623" stroke-width="2.5"/><circle cx="367" cy="340" r="7" fill="#E74C3C"/><text x="367" y="344" text-anchor="middle" font-size="10" font-weight="700" fill="#fff">М</text><text x="407" y="344" font-size="13" fill="#333">Пушкінская</text><circle cx="390" cy="384" r="7" fill="#fff" stroke="#F5A623" stroke-width="2.5"/><text x="405" y="388" font-size="13" fill="#333">Чалюскінцаў</text><circle cx="390" cy="428" r="8" fill="#F5A623"/><circle cx="390" cy="428" r="5" fill="#fff"/><circle cx="390" cy="428" r="3" fill="#F5A623"/><text x="405" y="432" font-size="13" fill="#333">ДС Чалюскінцаў</text><rect x="364" y="440" width="52" height="26" rx="13" fill="#F5A623"/><text x="390" y="458" text-anchor="middle" font-size="13" font-weight="700" fill="#fff">А12</text><rect x="504" y="72" width="52" height="26" rx="13" fill="#F5A623"/><text x="530" y="90" text-anchor="middle" font-size="13" font-weight="700" fill="#fff">А27</text><line x1="530" y1="120" x2="530" y2="252" stroke="#F5A623" stroke-width="6" stroke-linecap="round"/><circle cx="530" cy="120" r="11" fill="#E74C3C" opacity="0.2"/><circle cx="530" cy="120" r="9" fill="#E74C3C"/><circle cx="530" cy="164" r="7" fill="#fff" stroke="#F5A623" stroke-width="2.5"/><text x="545" y="168" font-size="13" fill="#333">Юбілейная плошча</text><circle cx="530" cy="208" r="7" fill="#fff" stroke="#F5A623" stroke-width="2.5"/><text x="545" y="212" font-size="13" fill="#333">Даўгабродская</text><circle cx="530" cy="252" r="8" fill="#F5A623"/><circle cx="530" cy="252" r="5" fill="#fff"/><circle cx="530" cy="252" r="3" fill="#F5A623"/><text x="545" y="256" font-size="13" fill="#333">ДС Шабаны</text><rect x="504" y="264" width="52" height="26" rx="13" fill="#F5A623"/><text x="530" y="282" text-anchor="middle" font-size="13" font-weight="700" fill="#fff">А27</text><rect x="644" y="72" width="52" height="26" rx="13" fill="#F5A623"/><text x="670" y="90" text-anchor="middle" font-size="13" font-weight="700" fill="#fff">А47</text><line x1="670" y1="120" x2="670" y2="340" stroke="#F5A623" stroke-width="6" stroke-linecap="round"/><circle cx="670" cy="120" r="11" fill="#E74C3C" opacity="0.2"/><circle cx="670" cy="120" r="9" fill="#E74C3C"/><circle cx="670" cy="164" r="7" fill="#fff" stroke="#F5A623" stroke-width="2.5"/><text x="685" y="168" font-size="13" fill="#333">Плошча Свабоды</text><circle cx="670" cy="208" r="7" fill="#fff" stroke="#F5A623" stroke-width="2.5"/><text x="685" y="212" font-size="13" fill="#333">Максіма Багдановіча</text><circle cx="670" cy="252" r="7" fill="#fff" stroke="#F5A623" stroke-width="2.5"/><text x="685" y="256" font-size="13" fill="#333">Батанічны сад</text><circle cx="670" cy="296" r="7" fill="#fff" stroke="#F5A623" stroke-width="2.5"/><text x="685" y="300" font-size="13" fill="#333">Чарнышэўскага</text><circle cx="670" cy="340" r="8" fill="#F5A623"/><circle cx="670" cy="340" r="5" fill="#fff"/><circle cx="670" cy="340" r="3" fill="#F5A623"/><text x="685" y="344" font-size="13" fill="#333">ДС Серабранка</text><rect x="644" y="352" width="52" height="26" rx="13" fill="#F5A623"/><text x="670" y="370" text-anchor="middle" font-size="13" font-weight="700" fill="#fff">А47</text><g transform="translate(40, 542)"><rect x="0" y="-8" width="16" height="16" rx="3" fill="#F5A623"/><text x="22" y="5" font-size="12" fill="#666">Аўтобус</text><rect x="100" y="-8" width="16" height="16" rx="3" fill="#4CAF50"/><text x="122" y="5" font-size="12" fill="#666">Тралейбус</text></g></svg>