<svg xmlns="http://www.w3.org/2000/svg" width="910" height="564" viewBox="0 0 910 564" style="font-family: 'Segoe UI', system-ui, sans-serif"><rect width="910" height="564" fill="#ffffff" rx="16"/><text x="455" y="36" text-anchor="middle" font-size="20" font-weight="700" fill="#1a1a2e">Нямiга</text><g transform="translate(455, 56)"><rect x="-30" y="-11" width="60" height="22" rx="11" fill="#E74C3C" opacity="0.12"/><text x="0" y="4" text-anchor="middle" font-size="11" fill="#E74C3C" font-weight="600">Вы тут</text></g><path d="M476.25,100 L476.25,119 L242.5,119 L242.5,138" fill="none" stroke="#F5A623" stroke-width="4" stroke-linecap="square" stroke-linejoin="miter"/><path d="M242.5,138 L242.5,157 L115,157 L115,176" fill="none" stroke="#F5A623" stroke-width="4" stroke-linecap="square" stroke-linejoin="miter"/><line x1="115" y1="176" x2="115" y2="214" stroke="#F5A623" stroke-width="4" stroke-linecap="square"/><line x1="115" y1="214" x2="115" y2="252" stroke="#F5A623" stroke-width="4" stroke-linecap="square"/><line x1="115" y1="252" x2="115" y2="290" stroke="#F5A623" stroke-width="4" stroke-linecap="square"/><line x1="115" y1="290" x2="115" y2="328" stroke="#F5A623" stroke-width="4" stroke-linecap="square"/><path d="M242.5,138 L242.5,157 L370,157 L370,176" fill="none" stroke="#F5A623" stroke-width="4" stroke-linecap="square" stroke-linejoin="miter"/><path d="M370,176 L370,195 L285,195 L285,214" fill="none" stroke="#F5A623" stroke-width="4" stroke-linecap="square" stroke-linejoin="miter"/><line x1="285" y1="214" x2="285" y2="252" stroke="#F5A623" stroke-width="4" stroke-linecap="square"/><line x1="285" y1="252" x2="285" y2="290" stroke="#F5A623" stroke-width="4" stroke-linecap="square"/><line x1="285" y1="290" x2="285" y2="328" stroke="#F5A623" stroke-width="4" stroke-linecap="square"/><line x1="285" y1="328" x2="285" y2="366" stroke="#F5A623" stroke-width="4" stroke-linecap="square"/><path d="M370,176 L370,195 L455,195 L455,214" fill="none" stroke="#F5A623" stroke-width="4" stroke-linecap="square" stroke-linejoin="miter"/><line x1="455" y1="214" x2="455" y2="252" stroke="#F5A623" stroke-width="4" stroke-linecap="square"/><line x1="455" y1="252" x2="455" y2="290" stroke="#F5A623" stroke-width="4" stroke-linecap="square"/><path d="M471.75,100 L471.75,119 L705.5,119 L705.5,138" fill="none" stroke="#F5A623" stroke-width="4" stroke-linecap="square" stroke-linejoin="miter"/><path d="M480.75,100 L480.75,119 L714.5,119 L714.5,138" fill="none" stroke="#4CAF50" stroke-width="4" stroke-linecap="square" stroke-linejoin="miter"/><path d="M710,138 L710,157 L625,157 L625,176" fill="none" stroke="#F5A623" stroke-width="4" stroke-linecap="square" stroke-linejoin="miter"/><line x1="625" y1="176" x2="625" y2="214" stroke="#F5A623" stroke-width="4" stroke-linecap="square"/><path d="M710,138 L710,157 L795,157 L795,176" fill="none" stroke="#4CAF50" stroke-width="4" stroke-linecap="square" stroke-linejoin="miter"/><line x1="795" y1="176" x2="795" y2="214" stroke="#4CAF50" stroke-width="4" stroke-linecap="square"/><line x1="795" y1="214" x2="795" y2="252" stroke="#4CAF50" stroke-width="4" stroke-linecap="square"/><line x1="795" y1="252" x2="795" y2="290" stroke="#4CAF50" stroke-width="4" stroke-linecap="square"/><line x1="795" y1="290" x2="795" y2="328" stroke="#4CAF50" stroke-width="4" stroke-linecap="square"/><line x1="795" y1="328" x2="795" y2="366" stroke="#4CAF50" stroke-width="4" stroke-linecap="square"/><rect x="471.75" y="98" width="10" height="4" rx="1" fill="#E74C3C"/><rect x="480.75" y="98" width="10" height="4" rx="1" fill="#E74C3C"/><text x="359.375" y="114" text-anchor="middle" font-size="9" fill="#999" font-weight="600">А2, А12, А47</text><text x="593.125" y="114" text-anchor="middle" font-size="9" fill="#999" font-weight="600">А27, Т1</text><text x="476.25" y="78" text-anchor="middle" font-size="10" fill="#aaa">А2   А12   А27   А47   Т1</text><rect x="242.5" y="136" width="10" height="4" rx="1" fill="#F5A623"/><text x="257.5" y="141.5" font-size="11" font-weight="400" fill="#333">Плошча Свабоды</text><text x="236.5" y="136" text-anchor="end" font-size="9" fill="#ccc">А2, А12, А47</text><text x="178.75" y="152" text-anchor="middle" font-size="9" fill="#999" font-weight="600">А2</text><text x="306.25" y="152" text-anchor="middle" font-size="9" fill="#999" font-weight="600">А12, А47</text><rect x="115" y="174" width="10" height="4" rx="1" fill="#F5A623"/><text x="130" y="179.5" font-size="11" font-weight="400" fill="#333">Юбілейная плошча</text><text x="109" y="174" text-anchor="end" font-size="9" fill="#ccc">А2</text><rect x="115" y="212" width="10" height="4" rx="1" fill="#F5A623"/><circle cx="100" cy="214" r="6.5" fill="#E74C3C"/><text x="100" y="217.5" text-anchor="middle" font-size="9" font-weight="700" fill="#fff">М</text><text x="130" y="217.5" font-size="11" font-weight="600" fill="#333">Плошча Перамогi</text><text x="109" y="212" text-anchor="end" font-size="9" fill="#ccc">А2</text><rect x="115" y="250" width="10" height="4" rx="1" fill="#F5A623"/><text x="130" y="255.5" font-size="11" font-weight="400" fill="#333">Паркавая</text><text x="109" y="250" text-anchor="end" font-size="9" fill="#ccc">А2</text><rect x="115" y="288" width="10" height="4" rx="1" fill="#F5A623"/><text x="130" y="293.5" font-size="11" font-weight="400" fill="#333">Батанічны сад</text><text x="109" y="288" text-anchor="end" font-size="9" fill="#ccc">А2</text><rect x="115" y="326" width="10" height="4" rx="1" fill="#F5A623"/><text x="130" y="331.5" font-size="11" font-weight="400" fill="#333">ДС Серабранка</text><rect x="90" y="336" width="50" height="24" rx="12" fill="#F5A623"/><text x="115" y="352" text-anchor="middle" font-size="11" font-weight="700" fill="#fff">А2</text><rect x="370" y="174" width="10" height="4" rx="1" fill="#F5A623"/><text x="385" y="179.5" font-size="11" font-weight="400" fill="#333">Максіма Багдановіча</text><text x="364" y="174" text-anchor="end" font-size="9" fill="#ccc">А12, А47</text><text x="327.5" y="190" text-anchor="middle" font-size="9" fill="#999" font-weight="600">А12</text><text x="412.5" y="190" text-anchor="middle" font-size="9" fill="#999" font-weight="600">А47</text><rect x="285" y="212" width="10" height="4" rx="1" fill="#F5A623"/><circle cx="270" cy="214" r="6.5" fill="#E74C3C"/><text x="270" y="217.5" text-anchor="middle" font-size="9" font-weight="700" fill="#fff">М</text><text x="300" y="217.5" font-size="11" font-weight="600" fill="#333">Плошча Якуба Коласа</text><text x="279" y="212" text-anchor="end" font-size="9" fill="#ccc">А12</text><rect x="285" y="250" width="10" height="4" rx="1" fill="#F5A623"/><text x="300" y="255.5" font-size="11" font-weight="400" fill="#333">Камароўскі рынак</text><text x="279" y="250" text-anchor="end" font-size="9" fill="#ccc">А12</text><rect x="285" y="288" width="10" height="4" rx="1" fill="#F5A623"/><circle cx="270" cy="290" r="6.5" fill="#E74C3C"/><text x="270" y="293.5" text-anchor="middle" font-size="9" font-weight="700" fill="#fff">М</text><text x="300" y="293.5" font-size="11" font-weight="600" fill="#333">Пушкінская</text><text x="279" y="288" text-anchor="end" font-size="9" fill="#ccc">А12</text><rect x="285" y="326" width="10" height="4" rx="1" fill="#F5A623"/><text x="300" y="331.5" font-size="11" font-weight="400" fill="#333">Чалюскінцаў</text><text x="279" y="326" text-anchor="end" font-size="9" fill="#ccc">А12</text><rect x="285" y="364" width="10" height="4" rx="1" fill="#F5A623"/><text x="300" y="369.5" font-size="11" font-weight="400" fill="#333">ДС Чалюскінцаў</text><rect x="260" y="374" width="50" height="24" rx="12" fill="#F5A623"/><text x="285" y="390" text-anchor="middle" font-size="11" font-weight="700" fill="#fff">А12</text><rect x="455" y="212" width="10" height="4" rx="1" fill="#F5A623"/><text x="470" y="217.5" font-size="11" font-weight="400" fill="#333">Батанічны сад</text><text x="449" y="212" text-anchor="end" font-size="9" fill="#ccc">А47</text><rect x="455" y="250" width="10" height="4" rx="1" fill="#F5A623"/><text x="470" y="255.5" font-size="11" font-weight="400" fill="#333">Чарнышэўскага</text><text x="449" y="250" text-anchor="end" font-size="9" fill="#ccc">А47</text><rect x="455" y="288" width="10" height="4" rx="1" fill="#F5A623"/><text x="470" y="293.5" font-size="11" font-weight="400" fill="#333">ДС Серабранка</text><rect x="430" y="298" width="50" height="24" rx="12" fill="#F5A623"/><text x="455" y="314" text-anchor="middle" font-size="11" font-weight="700" fill="#fff">А47</text><rect x="705.5" y="136" width="10" height="4" rx="1" fill="#F5A623"/><rect x="714.5" y="136" width="10" height="4" rx="1" fill="#4CAF50"/><text x="729.5" y="141.5" font-size="11" font-weight="400" fill="#333">Юбілейная плошча</text><text x="699.5" y="136" text-anchor="end" font-size="9" fill="#ccc">А27, Т1</text><text x="667.5" y="152" text-anchor="middle" font-size="9" fill="#999" font-weight="600">А27</text><text x="752.5" y="152" text-anchor="middle" font-size="9" fill="#999" font-weight="600">Т1</text><rect x="625" y="174" width="10" height="4" rx="1" fill="#F5A623"/><text x="640" y="179.5" font-size="11" font-weight="400" fill="#333">Даўгабродская</text><text x="619" y="174" text-anchor="end" font-size="9" fill="#ccc">А27</text><rect x="625" y="212" width="10" height="4" rx="1" fill="#F5A623"/><text x="640" y="217.5" font-size="11" font-weight="400" fill="#333">ДС Шабаны</text><rect x="600" y="222" width="50" height="24" rx="12" fill="#F5A623"/><text x="625" y="238" text-anchor="middle" font-size="11" font-weight="700" fill="#fff">А27</text><rect x="795" y="174" width="10" height="4" rx="1" fill="#4CAF50"/><circle cx="780" cy="176" r="6.5" fill="#E74C3C"/><text x="780" y="179.5" text-anchor="middle" font-size="9" font-weight="700" fill="#fff">М</text><text x="810" y="179.5" font-size="11" font-weight="600" fill="#333">Плошча Перамогi</text><text x="789" y="174" text-anchor="end" font-size="9" fill="#ccc">Т1</text><rect x="795" y="212" width="10" height="4" rx="1" fill="#4CAF50"/><circle cx="780" cy="214" r="6.5" fill="#E74C3C"/><text x="780" y="217.5" text-anchor="middle" font-size="9" font-weight="700" fill="#fff">М</text><text x="810" y="217.5" font-size="11" font-weight="600" fill="#333">Плошча Якуба Коласа</text><text x="789" y="212" text-anchor="end" font-size="9" fill="#ccc">Т1</text><rect x="795" y="250" width="10" height="4" rx="1" fill="#4CAF50"/><circle cx="780" cy="252" r="6.5" fill="#E74C3C"/><text x="780" y="255.5" text-anchor="middle" font-size="9" font-weight="700" fill="#fff">М</text><text x="810" y="255.5" font-size="11" font-weight="600" fill="#333">Акадэмія навук</text><text x="789" y="250" text-anchor="end" font-size="9" fill="#ccc">Т1</text><rect x="795" y="288" width="10" height="4" rx="1" fill="#4CAF50"/><circle cx="780" cy="290" r="6.5" fill="#E74C3C"/><text x="780" y="293.5" text-anchor="middle" font-size="9" font-weight="700" fill="#fff">М</text><text x="810" y="293.5" font-size="11" font-weight="600" fill="#333">Парк Чалюскінцаў</text><text x="789" y="288" text-anchor="end" font-size="9" fill="#ccc">Т1</text><rect x="795" y="326" width="10" height="4" rx="1" fill="#4CAF50"/><circle cx="780" cy="328" r="6.5" fill="#E74C3C"/><text x="780" y="331.5" text-anchor="middle" font-size="9" font-weight="700" fill="#fff">М</text><text x="810" y="331.5" font-size="11" font-weight="600" fill="#333">Маскоўская</text><text x="789" y="326" text-anchor="end" font-size="9" fill="#ccc">Т1</text><rect x="795" y="364" width="10" height="4" rx="1" fill="#4CAF50"/><text x="810" y="369.5" font-size="11" font-weight="400" fill="#333">ДС Усход</text><rect x="770" y="374" width="50" height="24" rx="12" fill="#4CAF50"/><text x="795" y="390" text-anchor="middle" font-size="11" font-weight="700" fill="#fff">Т1</text><g transform="translate(30, 539)"><rect x="0" y="-8" width="14" height="14" rx="3" fill="#F5A623"/><text x="20" y="4" font-size="11" fill="#666">Аўтобус</text><rect x="95" y="-8" width="14" height="14" rx="3" fill="#4CAF50"/><text x="115" y="4" font-size="11" fill="#666">Тралейбус</text><circle cx="210" cy="0" r="6.5" fill="#E74C3C"/><text x="210" y="3.5" text-anchor="middle" font-size="9" font-weight="700" fill="#fff">М</text><text x="222" y="4" font-size="11" fill="#666">Метро</text></g></svg>