<svg xmlns="http://www.w3.org/2000/svg" width="1080" height="540" viewBox="0 0 1080 540" style="font-family: sans-serif"><rect width="1080" height="540" fill="#ffffff" rx="16"/><text x="540" y="40" text-anchor="middle" font-size="22" font-weight="700" fill="#1a1a2e">Нямiга</text><g transform="translate(540, 58)"><circle cx="0" cy="0" r="6" fill="#E74C3C"/><text x="12" y="5" font-size="13" fill="#E74C3C" font-weight="600">Вы тут</text></g><rect x="114" y="72" width="52" height="26" rx="13" fill="#4CAF50"/><text x="140" y="90" text-anchor="middle" font-size="13" font-weight="700" fill="#fff">Т1</text><line x1="140" y1="120" x2="140" y2="400" stroke="#4CAF50" stroke-width="6" stroke-linecap="round"/><rect x="147" y="115" width="10" height="10" rx="2" fill="#E74C3C" opacity="0.25"/><rect x="148" y="116" width="8" height="8" rx="2" fill="#E74C3C"/><line x1="140" y1="120" x2="148" y2="120" stroke="#E74C3C" stroke-width="2"/><rect x="148" y="156" width="8" height="8" rx="2" fill="#fff" stroke="#4CAF50" stroke-width="2"/><line x1="140" y1="160" x2="148" y2="160" stroke="#4CAF50" stroke-width="2"/><text x="162" y="164" font-size="13" fill="#333">Юбілейная плошча</text><rect x="148" y="196" width="8" height="8" rx="2" fill="#fff" stroke="#4CAF50" stroke-width="2"/><line x1="140" y1="200" x2="148" y2="200" stroke="#4CAF50" stroke-width="2"/><circle cx="124" cy="200" r="7" fill="#E74C3C"/><text x="124" y="204" text-anchor="middle" font-size="10" font-weight="700" fill="#fff">М</text><text x="162" y="204" font-size="13" fill="#333">Плошча Перамогi</text><rect x="148" y="236" width="8" height="8" rx="2" fill="#fff" stroke="#4CAF50" stroke-width="2"/><line x1="140" y1="240" x2="148" y2="240" stroke="#4CAF50" stroke-width="2"/><circle cx="124" cy="240" r="7" fill="#E74C3C"/><text x="124" y="244" text-anchor="middle" font-size="10" font-weight="700" fill="#fff">М</text><text x="162" y="244" font-size="13" fill="#333">Плошча Якуба Коласа</text><rect x="148" y="276" width="8" height="8" rx="2" fill="#fff" stroke="#4CAF50" stroke-width="2"/><line x1="140" y1="280" x2="148" y2="280" stroke="#4CAF50" stroke-width="2"/><circle cx="124" cy="280" r="7" fill="#E74C3C"/><text x="124" y="284" text-anchor="middle" font-size="10" font-weight="700" fill="#fff">М</text><text x="162" y="284" font-size="13" fill="#333">Акадэмія навук</text><rect x="148" y="316" width="8" height="8" rx="2" fill="#fff" stroke="#4CAF50" stroke-width="2"/><line x1="140" y1="320" x2="148" y2="320" stroke="#4CAF50" stroke-width="2"/><circle cx="124" cy="320" r="7" fill="#E74C3C"/><text x="124" y="324" text-anchor="middle" font-size="10" font-weight="700" fill="#fff">М</text><text x="162" y="324" font-size="13" fill="#333">Парк Чалюскінцаў</text><rect x="148" y="356" width="8" height="8" rx="2" fill="#fff" stroke="#4CAF50" stroke-width="2"/><line x1="140" y1="360" x2="148" y2="360" stroke="#4CAF50" stroke-width="2"/><circle cx="124" cy="360" r="7" fill="#E74C3C"/><text x="124" y="364" text-anchor="middle" font-size="10" font-weight="700" fill="#fff">М</text><text x="162" y="364" font-size="13" fill="#333">Маскоўская</text><rect x="148" y="396" width="8" height="8" rx="2" fill="#4CAF50"/><rect x="150" y="398" width="4" height="4" rx="1" fill="#fff"/><line x1="140" y1="400" x2="148" y2="400" stroke="#4CAF50" stroke-width="2"/><text x="162" y="404" font-size="13" fill="#333">ДС Усход</text><rect x="114" y="412" width="52" height="26" rx="13" fill="#4CAF50"/><text x="140" y="430" text-anchor="middle" font-size="13" font-weight="700" fill="#fff">Т1</text><rect x="314" y="72" width="52" height="26" rx="13" fill="#F5A623"/><text x="340" y="90" text-anchor="middle" font-size="13" font-weight="700" fill="#fff">А2</text><line x1="340" y1="120" x2="340" y2="360" stroke="#F5A623" stroke-width="6" stroke-linecap="round"/><rect x="347" y="115" width="10" height="10" rx="2" fill="#E74C3C" opacity="0.25"/><rect x="348" y="116" width="8" height="8" rx="2" fill="#E74C3C"/><line x1="340" y1="120" x2="348" y2="120" stroke="#E74C3C" stroke-width="2"/><rect x="348" y="156" width="8" height="8" rx="2" fill="#fff" stroke="#F5A623" stroke-width="2"/><line x1="340" y1="160" x2="348" y2="160" stroke="#F5A623" stroke-width="2"/><text x="362" y="164" font-size="13" fill="#333">Плошча Свабоды</text><rect x="348" y="196" width="8" height="8" rx="2" fill="#fff" stroke="#F5A623" stroke-width="2"/><line x1="340" y1="200" x2="348" y2="200" stroke="#F5A623" stroke-width="2"/><text x="362" y="204" font-size="13" fill="#333">Юбілейная плошча</text><rect x="348" y="236" width="8" height="8" rx="2" fill="#fff" stroke="#F5A623" stroke-width="2"/><line x1="340" y1="240" x2="348" y2="240" stroke="#F5A623" stroke-width="2"/><circle cx="324" cy="240" r="7" fill="#E74C3C"/><text x="324" y="244" text-anchor="middle" font-size="10" font-weight="700" fill="#fff">М</text><text x="362" y="244" font-size="13" fill="#333">Плошча Перамогi</text><rect x="348" y="276" width="8" height="8" rx="2" fill="#fff" stroke="#F5A623" stroke-width="2"/><line x1="340" y1="280" x2="348" y2="280" stroke="#F5A623" stroke-width="2"/><text x="362" y="284" font-size="13" fill="#333">Паркавая</text><rect x="348" y="316" width="8" height="8" rx="2" fill="#fff" stroke="#F5A623" stroke-width="2"/><line x1="340" y1="320" x2="348" y2="320" stroke="#F5A623" stroke-width="2"/><text x="362" y="324" font-size="13" fill="#333">Батанічны сад</text><rect x="348" y="356" width="8" height="8" rx="2" fill="#F5A623"/><rect x="350" y="358" width="4" height="4" rx="1" fill="#fff"/><line x1="340" y1="360" x2="348" y2="360" stroke="#F5A623" stroke-width="2"/><text x="362" y="364" font-size="13" fill="#333">ДС Серабранка</text><rect x="314" y="372" width="52" height="26" rx="13" fill="#F5A623"/><text x="340" y="390" text-anchor="middle" font-size="13" font-weight="700" fill="#fff">А2</text><rect x="514" y="72" width="52" height="26" rx="13" fill="#F5A623"/><text x="540" y="90" text-anchor="middle" font-size="13" font-weight="700" fill="#fff">А12</text><line x1="540" y1="120" x2="540" y2="400" stroke="#F5A623" stroke-width="6" stroke-linecap="round"/><rect x="547" y="115" width="10" height="10" rx="2" fill="#E74C3C" opacity="0.25"/><rect x="548" y="116" width="8" height="8" rx="2" fill="#E74C3C"/><line x1="540" y1="120" x2="548" y2="120" stroke="#E74C3C" stroke-width="2"/><rect x="548" y="156" width="8" height="8" rx="2" fill="#fff" stroke="#F5A623" stroke-width="2"/><line x1="540" y1="160" x2="548" y2="160" stroke="#F5A623" stroke-width="2"/><text x="562" y="164" font-size="13" fill="#333">Плошча Свабоды</text><rect x="548" y="196" width="8" height="8" rx="2" fill="#fff" stroke="#F5A623" stroke-width="2"/><line x1="540" y1="200" x2="548" y2="200" stroke="#F5A623" stroke-width="2"/><text x="562" y="204" font-size="13" fill="#333">Максіма Багдановіча</text><rect x="548" y="236" width="8" height="8" rx="2" fill="#fff" stroke="#F5A623" stroke-width="2"/><line x1="540" y1="240" x2="548" y2="240" stroke="#F5A623" stroke-width="2"/><circle cx="524" cy="240" r="7" fill="#E74C3C"/><text x="524" y="244" text-anchor="middle" font-size="10" font-weight="700" fill="#fff">М</text><text x="562" y="244" font-size="13" fill="#333">Плошча Якуба Коласа</text><rect x="548" y="276" width="8" height="8" rx="2" fill="#fff" stroke="#F5A623" stroke-width="2"/><line x1="540" y1="280" x2="548" y2="280" stroke="#F5A623" stroke-width="2"/><text x="562" y="284" font-size="13" fill="#333">Камароўскі рынак</text><rect x="548" y="316" width="8" height="8" rx="2" fill="#fff" stroke="#F5A623" stroke-width="2"/><line x1="540" y1="320" x2="548" y2="320" stroke="#F5A623" stroke-width="2"/><circle cx="524" cy="320" r="7" fill="#E74C3C"/><text x="524" y="324" text-anchor="middle" font-size="10" font-weight="700" fill="#fff">М</text><text x="562" y="324" font-size="13" fill="#333">Пушкінская</text><rect x="548" y="356" width="8" height="8" rx="2" fill="#fff" stroke="#F5A623" stroke-width="2"/><line x1="540" y1="360" x2="548" y2="360" stroke="#F5A623" stroke-width="2"/><text x="562" y="364" font-size="13" fill="#333">Чалюскінцаў</text><rect x="548" y="396" width="8" height="8" rx="2" fill="#F5A623"/><rect x="550" y="398" width="4" height="4" rx="1" fill="#fff"/><line x1="540" y1="400" x2="548" y2="400" stroke="#F5A623" stroke-width="2"/><text x="562" y="404" font-size="13" fill="#333">ДС Чалюскінцаў</text><rect x="514" y="412" width="52" height="26" rx="13" fill="#F5A623"/><text x="540" y="430" text-anchor="middle" font-size="13" font-weight="700" fill="#fff">А12</text><rect x="714" y="72" width="52" height="26" rx="13" fill="#F5A623"/><text x="740" y="90" text-anchor="middle" font-size="13" font-weight="700" fill="#fff">А27</text><line x1="740" y1="120" x2="740" y2="240" stroke="#F5A623" stroke-width="6" stroke-linecap="round"/><rect x="747" y="115" width="10" height="10" rx="2" fill="#E74C3C" opacity="0.25"/><rect x="748" y="116" width="8" height="8" rx="2" fill="#E74C3C"/><line x1="740" y1="120" x2="748" y2="120" stroke="#E74C3C" stroke-width="2"/><rect x="748" y="156" width="8" height="8" rx="2" fill="#fff" stroke="#F5A623" stroke-width="2"/><line x1="740" y1="160" x2="748" y2="160" stroke="#F5A623" stroke-width="2"/><text x="762" y="164" font-size="13" fill="#333">Юбілейная плошча</text><rect x="748" y="196" width="8" height="8" rx="2" fill="#fff" stroke="#F5A623" stroke-width="2"/><line x1="740" y1="200" x2="748" y2="200" stroke="#F5A623" stroke-width="2"/><text x="762" y="204" font-size="13" fill="#333">Даўгабродская</text><rect x="748" y="236" width="8" height="8" rx="2" fill="#F5A623"/><rect x="750" y="238" width="4" height="4" rx="1" fill="#fff"/><line x1="740" y1="240" x2="748" y2="240" stroke="#F5A623" stroke-width="2"/><text x="762" y="244" font-size="13" fill="#333">ДС Шабаны</text><rect x="714" y="252" width="52" height="26" rx="13" fill="#F5A623"/><text x="740" y="270" text-anchor="middle" font-size="13" font-weight="700" fill="#fff">А27</text><rect x="914" y="72" width="52" height="26" rx="13" fill="#F5A623"/><text x="940" y="90" text-anchor="middle" font-size="13" font-weight="700" fill="#fff">А47</text><line x1="940" y1="120" x2="940" y2="320" stroke="#F5A623" stroke-width="6" stroke-linecap="round"/><rect x="947" y="115" width="10" height="10" rx="2" fill="#E74C3C" opacity="0.25"/><rect x="948" y="116" width="8" height="8" rx="2" fill="#E74C3C"/><line x1="940" y1="120" x2="948" y2="120" stroke="#E74C3C" stroke-width="2"/><rect x="948" y="156" width="8" height="8" rx="2" fill="#fff" stroke="#F5A623" stroke-width="2"/><line x1="940" y1="160" x2="948" y2="160" stroke="#F5A623" stroke-width="2"/><text x="962" y="164" font-size="13" fill="#333">Плошча Свабоды</text><rect x="948" y="196" width="8" height="8" rx="2" fill="#fff" stroke="#F5A623" stroke-width="2"/><line x1="940" y1="200" x2="948" y2="200" stroke="#F5A623" stroke-width="2"/><text x="962" y="204" font-size="13" fill="#333">Максіма Багдановіча</text><rect x="948" y="236" width="8" height="8" rx="2" fill="#fff" stroke="#F5A623" stroke-width="2"/><line x1="940" y1="240" x2="948" y2="240" stroke="#F5A623" stroke-width="2"/><text x="962" y="244" font-size="13" fill="#333">Батанічны сад</text><rect x="948" y="276" width="8" height="8" rx="2" fill="#fff" stroke="#F5A623" stroke-width="2"/><line x1="940" y1="280" x2="948" y2="280" stroke="#F5A623" stroke-width="2"/><text x="962" y="284" font-size="13" fill="#333">Чарнышэўскага</text><rect x="948" y="316" width="8" height="8" rx="2" fill="#F5A623"/><rect x="950" y="318" width="4" height="4" rx="1" fill="#fff"/><line x1="940" y1="320" x2="948" y2="320" stroke="#F5A623" stroke-width="2"/><text x="962" y="324" font-size="13" fill="#333">ДС Серабранка</text><rect x="914" y="332" width="52" height="26" rx="13" fill="#F5A623"/><text x="940" y="350" text-anchor="middle" font-size="13" font-weight="700" fill="#fff">А47</text><g transform="translate(40, 510)"><rect x="0" y="-8" width="16" height="16" rx="3" fill="#F5A623"/><text x="22" y="5" font-size="12" fill="#666">Аўтобус</text><rect x="100" y="-8" width="16" height="16" rx="3" fill="#4CAF50"/><text x="122" y="5" font-size="12" fill="#666">Тралейбус</text></g></svg>