<svg xmlns="http://www.w3.org/2000/svg" width="910" height="600" viewBox="0 0 910 600" style="font-family:'Segoe UI',system-ui,sans-serif"><rect width="910" height="600" fill="#fff" rx="16"/><text x="455" y="36" text-anchor="middle" font-size="20" font-weight="700" fill="#1a1a2e">Нямiга</text><g transform="translate(455,56)"><rect x="-30" y="-11" width="60" height="22" rx="11" fill="#E74C3C" opacity=".12"/><text x="0" y="4" text-anchor="middle" font-size="11" fill="#E74C3C" font-weight="600">Вы тут</text></g><line x1="471.25" y1="100" x2="471.25" y2="116" stroke="#F5A623" stroke-width="5" stroke-linecap="square"/><line x1="481.25" y1="100" x2="481.25" y2="116" stroke="#4CAF50" stroke-width="5" stroke-linecap="square"/><line x1="471.25" y1="116" x2="242.5" y2="116" stroke="#F5A623" stroke-width="5" stroke-linecap="square"/><line x1="242.5" y1="116" x2="242.5" y2="140" stroke="#F5A623" stroke-width="5" stroke-linecap="square"/><line x1="471.25" y1="111" x2="705" y2="111" stroke="#F5A623" stroke-width="5" stroke-linecap="square"/><line x1="705" y1="111" x2="705" y2="140" stroke="#F5A623" stroke-width="5" stroke-linecap="square"/><line x1="481.25" y1="121" x2="715" y2="121" stroke="#4CAF50" stroke-width="5" stroke-linecap="square"/><line x1="715" y1="121" x2="715" y2="140" stroke="#4CAF50" stroke-width="5" stroke-linecap="square"/><line x1="242.5" y1="140" x2="242.5" y2="156" stroke="#F5A623" stroke-width="5" stroke-linecap="square"/><line x1="242.5" y1="156" x2="115" y2="156" stroke="#F5A623" stroke-width="5" stroke-linecap="square"/><line x1="115" y1="156" x2="115" y2="180" stroke="#F5A623" stroke-width="5" stroke-linecap="square"/><line x1="242.5" y1="156" x2="370" y2="156" stroke="#F5A623" stroke-width="5" stroke-linecap="square"/><line x1="370" y1="156" x2="370" y2="180" stroke="#F5A623" stroke-width="5" stroke-linecap="square"/><line x1="115" y1="180" x2="115" y2="220" stroke="#F5A623" stroke-width="5" stroke-linecap="square"/><line x1="115" y1="220" x2="115" y2="260" stroke="#F5A623" stroke-width="5" stroke-linecap="square"/><line x1="115" y1="260" x2="115" y2="300" stroke="#F5A623" stroke-width="5" stroke-linecap="square"/><line x1="115" y1="300" x2="115" y2="340" stroke="#F5A623" stroke-width="5" stroke-linecap="square"/><line x1="370" y1="180" x2="370" y2="196" stroke="#F5A623" stroke-width="5" stroke-linecap="square"/><line x1="370" y1="196" x2="285" y2="196" stroke="#F5A623" stroke-width="5" stroke-linecap="square"/><line x1="285" y1="196" x2="285" y2="220" stroke="#F5A623" stroke-width="5" stroke-linecap="square"/><line x1="370" y1="196" x2="455" y2="196" stroke="#F5A623" stroke-width="5" stroke-linecap="square"/><line x1="455" y1="196" x2="455" y2="220" stroke="#F5A623" stroke-width="5" stroke-linecap="square"/><line x1="285" y1="220" x2="285" y2="260" stroke="#F5A623" stroke-width="5" stroke-linecap="square"/><line x1="285" y1="260" x2="285" y2="300" stroke="#F5A623" stroke-width="5" stroke-linecap="square"/><line x1="285" y1="300" x2="285" y2="340" stroke="#F5A623" stroke-width="5" stroke-linecap="square"/><line x1="285" y1="340" x2="285" y2="380" stroke="#F5A623" stroke-width="5" stroke-linecap="square"/><line x1="455" y1="220" x2="455" y2="260" stroke="#F5A623" stroke-width="5" stroke-linecap="square"/><line x1="455" y1="260" x2="455" y2="300" stroke="#F5A623" stroke-width="5" stroke-linecap="square"/><line x1="705" y1="140" x2="705" y2="156" stroke="#F5A623" stroke-width="5" stroke-linecap="square"/><line x1="715" y1="140" x2="715" y2="156" stroke="#4CAF50" stroke-width="5" stroke-linecap="square"/><line x1="705" y1="156" x2="625" y2="156" stroke="#F5A623" stroke-width="5" stroke-linecap="square"/><line x1="625" y1="156" x2="625" y2="180" stroke="#F5A623" stroke-width="5" stroke-linecap="square"/><line x1="715" y1="156" x2="795" y2="156" stroke="#4CAF50" stroke-width="5" stroke-linecap="square"/><line x1="795" y1="156" x2="795" y2="180" stroke="#4CAF50" stroke-width="5" stroke-linecap="square"/><line x1="625" y1="180" x2="625" y2="220" stroke="#F5A623" stroke-width="5" stroke-linecap="square"/><line x1="795" y1="180" x2="795" y2="220" stroke="#4CAF50" stroke-width="5" stroke-linecap="square"/><line x1="795" y1="220" x2="795" y2="260" stroke="#4CAF50" stroke-width="5" stroke-linecap="square"/><line x1="795" y1="260" x2="795" y2="300" stroke="#4CAF50" stroke-width="5" stroke-linecap="square"/><line x1="795" y1="300" x2="795" y2="340" stroke="#4CAF50" stroke-width="5" stroke-linecap="square"/><line x1="795" y1="340" x2="795" y2="380" stroke="#4CAF50" stroke-width="5" stroke-linecap="square"/><circle cx="471.25" cy="100" r="3" fill="#fff" stroke="#E74C3C" stroke-width="1.5"/><circle cx="481.25" cy="100" r="3" fill="#fff" stroke="#E74C3C" stroke-width="1.5"/><text x="242.5" y="111" text-anchor="middle" font-size="9" fill="#999" font-weight="600">А2, А12, А47</text><text x="710" y="111" text-anchor="middle" font-size="9" fill="#999" font-weight="600">А27, Т1</text><circle cx="242.5" cy="140" r="3" fill="#fff" stroke="#F5A623" stroke-width="1.5"/><text x="253.5" y="144" font-size="12" font-weight="400" fill="#333">Плошча Свабоды</text><text x="115" y="151" text-anchor="middle" font-size="9" fill="#999" font-weight="600">А2</text><text x="370" y="151" text-anchor="middle" font-size="9" fill="#999" font-weight="600">А12, А47</text><circle cx="115" cy="180" r="3" fill="#fff" stroke="#F5A623" stroke-width="1.5"/><text x="126" y="184" font-size="12" font-weight="400" fill="#333">Юбілейная плошча</text><circle cx="115" cy="220" r="3" fill="#fff" stroke="#F5A623" stroke-width="1.5"/><circle cx="99" cy="220" r="6.5" fill="#E74C3C"/><text x="99" y="223.5" text-anchor="middle" font-size="9" font-weight="700" fill="#fff">М</text><text x="126" y="224" font-size="12" font-weight="600" fill="#333">Плошча Перамогi</text><circle cx="115" cy="260" r="3" fill="#fff" stroke="#F5A623" stroke-width="1.5"/><text x="126" y="264" font-size="12" font-weight="400" fill="#333">Паркавая</text><circle cx="115" cy="300" r="3" fill="#fff" stroke="#F5A623" stroke-width="1.5"/><text x="126" y="304" font-size="12" font-weight="400" fill="#333">Батанічны сад</text><circle cx="115" cy="340" r="3" fill="#fff" stroke="#F5A623" stroke-width="1.5"/><text x="126" y="344" font-size="12" font-weight="400" fill="#333">ДС Серабранка</text><rect x="90" y="348" width="50" height="24" rx="12" fill="#F5A623"/><text x="115" y="364" text-anchor="middle" font-size="11" font-weight="700" fill="#fff">А2</text><circle cx="370" cy="180" r="3" fill="#fff" stroke="#F5A623" stroke-width="1.5"/><text x="381" y="177" font-size="12" font-weight="400" fill="#333">Максіма</text><text x="381" y="191" font-size="12" font-weight="400" fill="#333">Багдановіча</text><text x="285" y="191" text-anchor="middle" font-size="9" fill="#999" font-weight="600">А12</text><text x="455" y="191" text-anchor="middle" font-size="9" fill="#999" font-weight="600">А47</text><circle cx="285" cy="220" r="3" fill="#fff" stroke="#F5A623" stroke-width="1.5"/><circle cx="269" cy="220" r="6.5" fill="#E74C3C"/><text x="269" y="223.5" text-anchor="middle" font-size="9" font-weight="700" fill="#fff">М</text><text x="296" y="217" font-size="12" font-weight="600" fill="#333">Плошча Якуба</text><text x="296" y="231" font-size="12" font-weight="600" fill="#333">Коласа</text><circle cx="285" cy="260" r="3" fill="#fff" stroke="#F5A623" stroke-width="1.5"/><text x="296" y="264" font-size="12" font-weight="400" fill="#333">Камароўскі рынак</text><circle cx="285" cy="300" r="3" fill="#fff" stroke="#F5A623" stroke-width="1.5"/><circle cx="269" cy="300" r="6.5" fill="#E74C3C"/><text x="269" y="303.5" text-anchor="middle" font-size="9" font-weight="700" fill="#fff">М</text><text x="296" y="304" font-size="12" font-weight="600" fill="#333">Пушкінская</text><circle cx="285" cy="340" r="3" fill="#fff" stroke="#F5A623" stroke-width="1.5"/><text x="296" y="344" font-size="12" font-weight="400" fill="#333">Чалюскінцаў</text><circle cx="285" cy="380" r="3" fill="#fff" stroke="#F5A623" stroke-width="1.5"/><text x="296" y="384" font-size="12" font-weight="400" fill="#333">ДС Чалюскінцаў</text><rect x="260" y="388" width="50" height="24" rx="12" fill="#F5A623"/><text x="285" y="404" text-anchor="middle" font-size="11" font-weight="700" fill="#fff">А12</text><circle cx="455" cy="220" r="3" fill="#fff" stroke="#F5A623" stroke-width="1.5"/><text x="466" y="224" font-size="12" font-weight="400" fill="#333">Батанічны сад</text><circle cx="455" cy="260" r="3" fill="#fff" stroke="#F5A623" stroke-width="1.5"/><text x="466" y="264" font-size="12" font-weight="400" fill="#333">Чарнышэўскага</text><circle cx="455" cy="300" r="3" fill="#fff" stroke="#F5A623" stroke-width="1.5"/><text x="466" y="304" font-size="12" font-weight="400" fill="#333">ДС Серабранка</text><rect x="430" y="308" width="50" height="24" rx="12" fill="#F5A623"/><text x="455" y="324" text-anchor="middle" font-size="11" font-weight="700" fill="#fff">А47</text><circle cx="705" cy="140" r="3" fill="#fff" stroke="#F5A623" stroke-width="1.5"/><circle cx="715" cy="140" r="3" fill="#fff" stroke="#4CAF50" stroke-width="1.5"/><text x="726" y="144" font-size="12" font-weight="400" fill="#333">Юбілейная плошча</text><text x="625" y="151" text-anchor="middle" font-size="9" fill="#999" font-weight="600">А27</text><text x="795" y="151" text-anchor="middle" font-size="9" fill="#999" font-weight="600">Т1</text><circle cx="625" cy="180" r="3" fill="#fff" stroke="#F5A623" stroke-width="1.5"/><text x="636" y="184" font-size="12" font-weight="400" fill="#333">Даўгабродская</text><circle cx="625" cy="220" r="3" fill="#fff" stroke="#F5A623" stroke-width="1.5"/><text x="636" y="224" font-size="12" font-weight="400" fill="#333">ДС Шабаны</text><rect x="600" y="228" width="50" height="24" rx="12" fill="#F5A623"/><text x="625" y="244" text-anchor="middle" font-size="11" font-weight="700" fill="#fff">А27</text><circle cx="795" cy="180" r="3" fill="#fff" stroke="#4CAF50" stroke-width="1.5"/><circle cx="779" cy="180" r="6.5" fill="#E74C3C"/><text x="779" y="183.5" text-anchor="middle" font-size="9" font-weight="700" fill="#fff">М</text><text x="806" y="184" font-size="12" font-weight="600" fill="#333">Плошча Перамогi</text><circle cx="795" cy="220" r="3" fill="#fff" stroke="#4CAF50" stroke-width="1.5"/><circle cx="779" cy="220" r="6.5" fill="#E74C3C"/><text x="779" y="223.5" text-anchor="middle" font-size="9" font-weight="700" fill="#fff">М</text><text x="806" y="217" font-size="12" font-weight="600" fill="#333">Плошча Якуба</text><text x="806" y="231" font-size="12" font-weight="600" fill="#333">Коласа</text><circle cx="795" cy="260" r="3" fill="#fff" stroke="#4CAF50" stroke-width="1.5"/><circle cx="779" cy="260" r="6.5" fill="#E74C3C"/><text x="779" y="263.5" text-anchor="middle" font-size="9" font-weight="700" fill="#fff">М</text><text x="806" y="264" font-size="12" font-weight="600" fill="#333">Акадэмія навук</text><circle cx="795" cy="300" r="3" fill="#fff" stroke="#4CAF50" stroke-width="1.5"/><circle cx="779" cy="300" r="6.5" fill="#E74C3C"/><text x="779" y="303.5" text-anchor="middle" font-size="9" font-weight="700" fill="#fff">М</text><text x="806" y="304" font-size="12" font-weight="600" fill="#333">Парк Чалюскінцаў</text><circle cx="795" cy="340" r="3" fill="#fff" stroke="#4CAF50" stroke-width="1.5"/><circle cx="779" cy="340" r="6.5" fill="#E74C3C"/><text x="779" y="343.5" text-anchor="middle" font-size="9" font-weight="700" fill="#fff">М</text><text x="806" y="344" font-size="12" font-weight="600" fill="#333">Маскоўская</text><circle cx="795" cy="380" r="3" fill="#fff" stroke="#4CAF50" stroke-width="1.5"/><text x="806" y="384" font-size="12" font-weight="400" fill="#333">ДС Усход</text><rect x="770" y="388" width="50" height="24" rx="12" fill="#4CAF50"/><text x="795" y="404" text-anchor="middle" font-size="11" font-weight="700" fill="#fff">Т1</text><g transform="translate(30,575)"><rect x="0" y="-8" width="14" height="14" rx="3" fill="#F5A623"/><text x="20" y="4" font-size="11" fill="#666">Аўтобус</text><rect x="95" y="-8" width="14" height="14" rx="3" fill="#4CAF50"/><text x="115" y="4" font-size="11" fill="#666">Тралейбус</text><circle cx="210" cy="0" r="6.5" fill="#E74C3C"/><text x="210" y="3.5" text-anchor="middle" font-size="9" font-weight="700" fill="#fff">М</text><text x="222" y="4" font-size="11" fill="#666">Метро</text></g></svg>