<svg xmlns="http://www.w3.org/2000/svg" width="960" height="528" viewBox="0 0 960 528" style="font-family: sans-serif"><rect width="960" height="528" fill="#ffffff" rx="16"/><text x="480" y="36" text-anchor="middle" font-size="20" font-weight="700" fill="#1a1a2e">Нямiга</text><g transform="translate(480, 54)"><rect x="-28" y="-10" width="56" height="20" rx="10" fill="#E74C3C" opacity="0.15"/><text x="0" y="4" text-anchor="middle" font-size="11" fill="#E74C3C" font-weight="600">Вы тут</text></g><path d="M412.5,100 C412.5,118 210,118 210,136" fill="none" stroke="#4CAF50" stroke-width="6" stroke-linecap="round"/><path d="M210,136 C210,154 120,154 120,172" fill="none" stroke="#4CAF50" stroke-width="6" stroke-linecap="round"/><line x1="120" y1="172" x2="120" y2="208" stroke="#4CAF50" stroke-width="6" stroke-linecap="round"/><line x1="120" y1="208" x2="120" y2="244" stroke="#4CAF50" stroke-width="6" stroke-linecap="round"/><line x1="120" y1="244" x2="120" y2="280" stroke="#4CAF50" stroke-width="6" stroke-linecap="round"/><line x1="120" y1="280" x2="120" y2="316" stroke="#4CAF50" stroke-width="6" stroke-linecap="round"/><line x1="120" y1="316" x2="120" y2="352" stroke="#4CAF50" stroke-width="6" stroke-linecap="round"/><path d="M210,136 C210,154 300,154 300,172" fill="none" stroke="#F5A623" stroke-width="6" stroke-linecap="round"/><line x1="300" y1="172" x2="300" y2="208" stroke="#F5A623" stroke-width="6" stroke-linecap="round"/><path d="M412.5,100 C412.5,118 615,118 615,136" fill="none" stroke="#F5A623" stroke-width="6" stroke-linecap="round"/><path d="M615,136 C615,154 480,154 480,172" fill="none" stroke="#F5A623" stroke-width="6" stroke-linecap="round"/><line x1="480" y1="172" x2="480" y2="208" stroke="#F5A623" stroke-width="6" stroke-linecap="round"/><line x1="480" y1="208" x2="480" y2="244" stroke="#F5A623" stroke-width="6" stroke-linecap="round"/><line x1="480" y1="244" x2="480" y2="280" stroke="#F5A623" stroke-width="6" stroke-linecap="round"/><line x1="480" y1="280" x2="480" y2="316" stroke="#F5A623" stroke-width="6" stroke-linecap="round"/><path d="M615,136 C615,154 750,154 750,172" fill="none" stroke="#F5A623" stroke-width="6" stroke-linecap="round"/><path d="M750,172 C750,190 660,190 660,208" fill="none" stroke="#F5A623" stroke-width="6" stroke-linecap="round"/><line x1="660" y1="208" x2="660" y2="244" stroke="#F5A623" stroke-width="6" stroke-linecap="round"/><line x1="660" y1="244" x2="660" y2="280" stroke="#F5A623" stroke-width="6" stroke-linecap="round"/><line x1="660" y1="280" x2="660" y2="316" stroke="#F5A623" stroke-width="6" stroke-linecap="round"/><line x1="660" y1="316" x2="660" y2="352" stroke="#F5A623" stroke-width="6" stroke-linecap="round"/><path d="M750,172 C750,190 840,190 840,208" fill="none" stroke="#F5A623" stroke-width="6" stroke-linecap="round"/><line x1="840" y1="208" x2="840" y2="244" stroke="#F5A623" stroke-width="6" stroke-linecap="round"/><line x1="840" y1="244" x2="840" y2="280" stroke="#F5A623" stroke-width="6" stroke-linecap="round"/><rect x="412.5" y="97.5" width="12" height="5" rx="1" fill="#E74C3C"/><text x="311.25" y="114.4" text-anchor="middle" font-size="9" fill="#aaa" font-style="italic">А27, Т1</text><text x="513.75" y="114.4" text-anchor="middle" font-size="9" fill="#aaa" font-style="italic">А2, А12, А47</text><rect x="210" y="133.5" width="12" height="5" rx="1" fill="#4CAF50"/><text x="228" y="140" font-size="12" font-weight="400" fill="#333">Юбілейная плошча</text><text x="165" y="150.4" text-anchor="middle" font-size="9" fill="#aaa" font-style="italic">Т1</text><text x="255" y="150.4" text-anchor="middle" font-size="9" fill="#aaa" font-style="italic">А27</text><rect x="120" y="169.5" width="12" height="5" rx="1" fill="#4CAF50"/><circle cx="104" cy="172" r="7" fill="#E74C3C"/><text x="104" y="176" text-anchor="middle" font-size="10" font-weight="700" fill="#fff">М</text><text x="138" y="176" font-size="12" font-weight="700" fill="#333">Плошча Перамогi</text><rect x="120" y="205.5" width="12" height="5" rx="1" fill="#4CAF50"/><circle cx="104" cy="208" r="7" fill="#E74C3C"/><text x="104" y="212" text-anchor="middle" font-size="10" font-weight="700" fill="#fff">М</text><text x="138" y="212" font-size="12" font-weight="700" fill="#333">Плошча Якуба Коласа</text><rect x="120" y="241.5" width="12" height="5" rx="1" fill="#4CAF50"/><circle cx="104" cy="244" r="7" fill="#E74C3C"/><text x="104" y="248" text-anchor="middle" font-size="10" font-weight="700" fill="#fff">М</text><text x="138" y="248" font-size="12" font-weight="700" fill="#333">Акадэмія навук</text><rect x="120" y="277.5" width="12" height="5" rx="1" fill="#4CAF50"/><circle cx="104" cy="280" r="7" fill="#E74C3C"/><text x="104" y="284" text-anchor="middle" font-size="10" font-weight="700" fill="#fff">М</text><text x="138" y="284" font-size="12" font-weight="700" fill="#333">Парк Чалюскінцаў</text><rect x="120" y="313.5" width="12" height="5" rx="1" fill="#4CAF50"/><circle cx="104" cy="316" r="7" fill="#E74C3C"/><text x="104" y="320" text-anchor="middle" font-size="10" font-weight="700" fill="#fff">М</text><text x="138" y="320" font-size="12" font-weight="700" fill="#333">Маскоўская</text><rect x="120" y="349.5" width="12" height="5" rx="1" fill="#4CAF50"/><text x="138" y="356" font-size="12" font-weight="400" fill="#333">ДС Усход</text><rect x="94" y="361" width="52" height="26" rx="13" fill="#4CAF50"/><text x="120" y="379" text-anchor="middle" font-size="12" font-weight="700" fill="#fff">Т1</text><rect x="300" y="169.5" width="12" height="5" rx="1" fill="#F5A623"/><text x="318" y="176" font-size="12" font-weight="400" fill="#333">Даўгабродская</text><rect x="300" y="205.5" width="12" height="5" rx="1" fill="#F5A623"/><text x="318" y="212" font-size="12" font-weight="400" fill="#333">ДС Шабаны</text><rect x="274" y="217" width="52" height="26" rx="13" fill="#F5A623"/><text x="300" y="235" text-anchor="middle" font-size="12" font-weight="700" fill="#fff">А27</text><rect x="615" y="133.5" width="12" height="5" rx="1" fill="#F5A623"/><text x="633" y="140" font-size="12" font-weight="400" fill="#333">Плошча Свабоды</text><text x="547.5" y="150.4" text-anchor="middle" font-size="9" fill="#aaa" font-style="italic">А2</text><text x="682.5" y="150.4" text-anchor="middle" font-size="9" fill="#aaa" font-style="italic">А12, А47</text><rect x="480" y="169.5" width="12" height="5" rx="1" fill="#F5A623"/><text x="498" y="176" font-size="12" font-weight="400" fill="#333">Юбілейная плошча</text><rect x="480" y="205.5" width="12" height="5" rx="1" fill="#F5A623"/><circle cx="464" cy="208" r="7" fill="#E74C3C"/><text x="464" y="212" text-anchor="middle" font-size="10" font-weight="700" fill="#fff">М</text><text x="498" y="212" font-size="12" font-weight="700" fill="#333">Плошча Перамогi</text><rect x="480" y="241.5" width="12" height="5" rx="1" fill="#F5A623"/><text x="498" y="248" font-size="12" font-weight="400" fill="#333">Паркавая</text><rect x="480" y="277.5" width="12" height="5" rx="1" fill="#F5A623"/><text x="498" y="284" font-size="12" font-weight="400" fill="#333">Батанічны сад</text><rect x="480" y="313.5" width="12" height="5" rx="1" fill="#F5A623"/><text x="498" y="320" font-size="12" font-weight="400" fill="#333">ДС Серабранка</text><rect x="454" y="325" width="52" height="26" rx="13" fill="#F5A623"/><text x="480" y="343" text-anchor="middle" font-size="12" font-weight="700" fill="#fff">А2</text><rect x="750" y="169.5" width="12" height="5" rx="1" fill="#F5A623"/><text x="768" y="176" font-size="12" font-weight="400" fill="#333">Максіма Багдановіча</text><text x="705" y="186.4" text-anchor="middle" font-size="9" fill="#aaa" font-style="italic">А12</text><text x="795" y="186.4" text-anchor="middle" font-size="9" fill="#aaa" font-style="italic">А47</text><rect x="660" y="205.5" width="12" height="5" rx="1" fill="#F5A623"/><circle cx="644" cy="208" r="7" fill="#E74C3C"/><text x="644" y="212" text-anchor="middle" font-size="10" font-weight="700" fill="#fff">М</text><text x="678" y="212" font-size="12" font-weight="700" fill="#333">Плошча Якуба Коласа</text><rect x="660" y="241.5" width="12" height="5" rx="1" fill="#F5A623"/><text x="678" y="248" font-size="12" font-weight="400" fill="#333">Камароўскі рынак</text><rect x="660" y="277.5" width="12" height="5" rx="1" fill="#F5A623"/><circle cx="644" cy="280" r="7" fill="#E74C3C"/><text x="644" y="284" text-anchor="middle" font-size="10" font-weight="700" fill="#fff">М</text><text x="678" y="284" font-size="12" font-weight="700" fill="#333">Пушкінская</text><rect x="660" y="313.5" width="12" height="5" rx="1" fill="#F5A623"/><text x="678" y="320" font-size="12" font-weight="400" fill="#333">Чалюскінцаў</text><rect x="660" y="349.5" width="12" height="5" rx="1" fill="#F5A623"/><text x="678" y="356" font-size="12" font-weight="400" fill="#333">ДС Чалюскінцаў</text><rect x="634" y="361" width="52" height="26" rx="13" fill="#F5A623"/><text x="660" y="379" text-anchor="middle" font-size="12" font-weight="700" fill="#fff">А12</text><rect x="840" y="205.5" width="12" height="5" rx="1" fill="#F5A623"/><text x="858" y="212" font-size="12" font-weight="400" fill="#333">Батанічны сад</text><rect x="840" y="241.5" width="12" height="5" rx="1" fill="#F5A623"/><text x="858" y="248" font-size="12" font-weight="400" fill="#333">Чарнышэўскага</text><rect x="840" y="277.5" width="12" height="5" rx="1" fill="#F5A623"/><text x="858" y="284" font-size="12" font-weight="400" fill="#333">ДС Серабранка</text><rect x="814" y="289" width="52" height="26" rx="13" fill="#F5A623"/><text x="840" y="307" text-anchor="middle" font-size="12" font-weight="700" fill="#fff">А47</text><g transform="translate(30, 503)"><rect x="0" y="-8" width="16" height="16" rx="3" fill="#F5A623"/><text x="22" y="5" font-size="12" fill="#666">Аўтобус</text><rect x="100" y="-8" width="16" height="16" rx="3" fill="#4CAF50"/><text x="122" y="5" font-size="12" fill="#666">Тралейбус</text></g></svg>