<svg xmlns="http://www.w3.org/2000/svg" width="1080" height="540" viewBox="0 0 1080 540" style="font-family: sans-serif"><rect width="1080" height="540" fill="#ffffff" rx="16"/><text x="540" y="40" text-anchor="middle" font-size="22" font-weight="700" fill="#1a1a2e">Нямiга</text><g transform="translate(540, 58)"><circle cx="0" cy="0" r="6" fill="#E74C3C"/><text x="12" y="5" font-size="13" fill="#E74C3C" font-weight="600">Вы тут</text></g><rect x="114" y="72" width="52" height="26" rx="13" fill="#4CAF50"/><text x="140" y="90" text-anchor="middle" font-size="13" font-weight="700" fill="#fff">Т1</text><line x1="140" y1="120" x2="140" y2="400" stroke="#4CAF50" stroke-width="6" stroke-linecap="round"/><rect x="140" y="117" width="12" height="6" rx="1" fill="#E74C3C"/><rect x="140" y="157" width="12" height="6" rx="1" fill="#4CAF50"/><text x="160" y="164" font-size="13" fill="#333">Юбілейная плошча</text><rect x="140" y="197" width="12" height="6" rx="1" fill="#4CAF50"/><circle cx="124" cy="200" r="7" fill="#E74C3C"/><text x="124" y="204" text-anchor="middle" font-size="10" font-weight="700" fill="#fff">М</text><text x="160" y="204" font-size="13" fill="#333">Плошча Перамогi</text><rect x="140" y="237" width="12" height="6" rx="1" fill="#4CAF50"/><circle cx="124" cy="240" r="7" fill="#E74C3C"/><text x="124" y="244" text-anchor="middle" font-size="10" font-weight="700" fill="#fff">М</text><text x="160" y="244" font-size="13" fill="#333">Плошча Якуба Коласа</text><rect x="140" y="277" width="12" height="6" rx="1" fill="#4CAF50"/><circle cx="124" cy="280" r="7" fill="#E74C3C"/><text x="124" y="284" text-anchor="middle" font-size="10" font-weight="700" fill="#fff">М</text><text x="160" y="284" font-size="13" fill="#333">Акадэмія навук</text><rect x="140" y="317" width="12" height="6" rx="1" fill="#4CAF50"/><circle cx="124" cy="320" r="7" fill="#E74C3C"/><text x="124" y="324" text-anchor="middle" font-size="10" font-weight="700" fill="#fff">М</text><text x="160" y="324" font-size="13" fill="#333">Парк Чалюскінцаў</text><rect x="140" y="357" width="12" height="6" rx="1" fill="#4CAF50"/><circle cx="124" cy="360" r="7" fill="#E74C3C"/><text x="124" y="364" text-anchor="middle" font-size="10" font-weight="700" fill="#fff">М</text><text x="160" y="364" font-size="13" fill="#333">Маскоўская</text><rect x="140" y="397" width="12" height="6" rx="1" fill="#4CAF50"/><text x="160" y="404" font-size="13" fill="#333">ДС Усход</text><rect x="114" y="412" width="52" height="26" rx="13" fill="#4CAF50"/><text x="140" y="430" text-anchor="middle" font-size="13" font-weight="700" fill="#fff">Т1</text><rect x="314" y="72" width="52" height="26" rx="13" fill="#F5A623"/><text x="340" y="90" text-anchor="middle" font-size="13" font-weight="700" fill="#fff">А2</text><line x1="340" y1="120" x2="340" y2="360" stroke="#F5A623" stroke-width="6" stroke-linecap="round"/><rect x="340" y="117" width="12" height="6" rx="1" fill="#E74C3C"/><rect x="340" y="157" width="12" height="6" rx="1" fill="#F5A623"/><text x="360" y="164" font-size="13" fill="#333">Плошча Свабоды</text><rect x="340" y="197" width="12" height="6" rx="1" fill="#F5A623"/><text x="360" y="204" font-size="13" fill="#333">Юбілейная плошча</text><rect x="340" y="237" width="12" height="6" rx="1" fill="#F5A623"/><circle cx="324" cy="240" r="7" fill="#E74C3C"/><text x="324" y="244" text-anchor="middle" font-size="10" font-weight="700" fill="#fff">М</text><text x="360" y="244" font-size="13" fill="#333">Плошча Перамогi</text><rect x="340" y="277" width="12" height="6" rx="1" fill="#F5A623"/><text x="360" y="284" font-size="13" fill="#333">Паркавая</text><rect x="340" y="317" width="12" height="6" rx="1" fill="#F5A623"/><text x="360" y="324" font-size="13" fill="#333">Батанічны сад</text><rect x="340" y="357" width="12" height="6" rx="1" fill="#F5A623"/><text x="360" y="364" font-size="13" fill="#333">ДС Серабранка</text><rect x="314" y="372" width="52" height="26" rx="13" fill="#F5A623"/><text x="340" y="390" text-anchor="middle" font-size="13" font-weight="700" fill="#fff">А2</text><rect x="514" y="72" width="52" height="26" rx="13" fill="#F5A623"/><text x="540" y="90" text-anchor="middle" font-size="13" font-weight="700" fill="#fff">А12</text><line x1="540" y1="120" x2="540" y2="400" stroke="#F5A623" stroke-width="6" stroke-linecap="round"/><rect x="540" y="117" width="12" height="6" rx="1" fill="#E74C3C"/><rect x="540" y="157" width="12" height="6" rx="1" fill="#F5A623"/><text x="560" y="164" font-size="13" fill="#333">Плошча Свабоды</text><rect x="540" y="197" width="12" height="6" rx="1" fill="#F5A623"/><text x="560" y="204" font-size="13" fill="#333">Максіма Багдановіча</text><rect x="540" y="237" width="12" height="6" rx="1" fill="#F5A623"/><circle cx="524" cy="240" r="7" fill="#E74C3C"/><text x="524" y="244" text-anchor="middle" font-size="10" font-weight="700" fill="#fff">М</text><text x="560" y="244" font-size="13" fill="#333">Плошча Якуба Коласа</text><rect x="540" y="277" width="12" height="6" rx="1" fill="#F5A623"/><text x="560" y="284" font-size="13" fill="#333">Камароўскі рынак</text><rect x="540" y="317" width="12" height="6" rx="1" fill="#F5A623"/><circle cx="524" cy="320" r="7" fill="#E74C3C"/><text x="524" y="324" text-anchor="middle" font-size="10" font-weight="700" fill="#fff">М</text><text x="560" y="324" font-size="13" fill="#333">Пушкінская</text><rect x="540" y="357" width="12" height="6" rx="1" fill="#F5A623"/><text x="560" y="364" font-size="13" fill="#333">Чалюскінцаў</text><rect x="540" y="397" width="12" height="6" rx="1" fill="#F5A623"/><text x="560" y="404" font-size="13" fill="#333">ДС Чалюскінцаў</text><rect x="514" y="412" width="52" height="26" rx="13" fill="#F5A623"/><text x="540" y="430" text-anchor="middle" font-size="13" font-weight="700" fill="#fff">А12</text><rect x="714" y="72" width="52" height="26" rx="13" fill="#F5A623"/><text x="740" y="90" text-anchor="middle" font-size="13" font-weight="700" fill="#fff">А27</text><line x1="740" y1="120" x2="740" y2="240" stroke="#F5A623" stroke-width="6" stroke-linecap="round"/><rect x="740" y="117" width="12" height="6" rx="1" fill="#E74C3C"/><rect x="740" y="157" width="12" height="6" rx="1" fill="#F5A623"/><text x="760" y="164" font-size="13" fill="#333">Юбілейная плошча</text><rect x="740" y="197" width="12" height="6" rx="1" fill="#F5A623"/><text x="760" y="204" font-size="13" fill="#333">Даўгабродская</text><rect x="740" y="237" width="12" height="6" rx="1" fill="#F5A623"/><text x="760" y="244" font-size="13" fill="#333">ДС Шабаны</text><rect x="714" y="252" width="52" height="26" rx="13" fill="#F5A623"/><text x="740" y="270" text-anchor="middle" font-size="13" font-weight="700" fill="#fff">А27</text><rect x="914" y="72" width="52" height="26" rx="13" fill="#F5A623"/><text x="940" y="90" text-anchor="middle" font-size="13" font-weight="700" fill="#fff">А47</text><line x1="940" y1="120" x2="940" y2="320" stroke="#F5A623" stroke-width="6" stroke-linecap="round"/><rect x="940" y="117" width="12" height="6" rx="1" fill="#E74C3C"/><rect x="940" y="157" width="12" height="6" rx="1" fill="#F5A623"/><text x="960" y="164" font-size="13" fill="#333">Плошча Свабоды</text><rect x="940" y="197" width="12" height="6" rx="1" fill="#F5A623"/><text x="960" y="204" font-size="13" fill="#333">Максіма Багдановіча</text><rect x="940" y="237" width="12" height="6" rx="1" fill="#F5A623"/><text x="960" y="244" font-size="13" fill="#333">Батанічны сад</text><rect x="940" y="277" width="12" height="6" rx="1" fill="#F5A623"/><text x="960" y="284" font-size="13" fill="#333">Чарнышэўскага</text><rect x="940" y="317" width="12" height="6" rx="1" fill="#F5A623"/><text x="960" y="324" font-size="13" fill="#333">ДС Серабранка</text><rect x="914" y="332" width="52" height="26" rx="13" fill="#F5A623"/><text x="940" y="350" text-anchor="middle" font-size="13" font-weight="700" fill="#fff">А47</text><g transform="translate(40, 510)"><rect x="0" y="-8" width="16" height="16" rx="3" fill="#F5A623"/><text x="22" y="5" font-size="12" fill="#666">Аўтобус</text><rect x="100" y="-8" width="16" height="16" rx="3" fill="#4CAF50"/><text x="122" y="5" font-size="12" fill="#666">Тралейбус</text></g></svg>